<svg xmlns="http://www.w3.org/2000/svg" xmlns:xlink="http://www.w3.org/1999/xlink" version="1.1" width="595.276" height="841.89" viewBox="0 0 595.276 841.89">
<text fill="#004f90" xml:space="preserve" transform="matrix(1 0 -0 1 0 841.89)" font-size="29.8879" font-family="SourceSansPro" font-weight="bold"><tspan y="-764.186" x="235.874 251.1766 267.82417 285.0097 308.17283 327.21144 343.85899">JohnDoe</tspan></text>
<text fill="#004f90" xml:space="preserve" transform="matrix(1 0 -0 1 0 841.89)" font-size="7.9701" font-family="FontAwesome5Free"><tspan y="-737.74899" x="128.03699">&#xfffd;</tspan></text>
<text fill="#004f90" xml:space="preserve" transform="matrix(1 0 -0 1 0 841.89)" font-size="9.9626" font-family="SourceSansPro"><tspan y="-737.74899" x="137.69899 143.38764 148.80728 151.26805 155.71138 160.73253 165.62416 170.92427 175.40744 178.0276">Chicago,IL</tspan></text>
<text fill="#004f90" xml:space="preserve" transform="matrix(1 0 -0 1 0 841.89)" font-size="7.9701" font-family="FontAwesome5Free"><tspan y="-737.74899" x="197.043">&#xfffd;</tspan></text>
<text fill="#004f90" xml:space="preserve" transform="matrix(1 0 -0 1 0 841.89)" font-size="9.9626" font-family="SourceSansPro"><tspan y="-737.74899" x="208.698 211.15877 216.5585 221.97815 227.42769 229.80875 235.33798 240.73772 245.67917 254.10753 259.13865 267.39765 272.4188 274.87956 277.42 279.8011 284.1348 289.53453">john.doe@gmail.com</tspan></text>
<text fill="#004f90" xml:space="preserve" transform="matrix(1 0 -0 1 0 841.89)" font-size="7.9701" font-family="FontAwesome5Free"><tspan y="-737.74899" x="311.96699">&#xfffd;</tspan></text>
<text fill="#004f90" xml:space="preserve" transform="matrix(1 0 -0 1 0 841.89)" font-size="9.9626" font-family="SourceSansPro"><tspan y="-737.74899" x="323.623 328.5744 335.51835 340.46977 345.42118 352.3651 357.31654 362.26795 369.21189 374.1633 379.11473 384.06614">+13123584237</tspan></text>
<text fill="#004f90" xml:space="preserve" transform="matrix(1 0 -0 1 0 841.89)" font-size="7.9701" font-family="FontAwesome5Brands"><tspan y="-737.74899" x="403.19">&#xfffd;</tspan></text>
<text fill="#004f90" xml:space="preserve" transform="matrix(1 0 -0 1 0 841.89)" font-size="9.9626" font-family="SourceSansPro"><tspan y="-737.74899" x="413.849 418.68086 423.702 427.16899 430.5463 435.96595 438.4267 443.3582 448.77784 454.17756 458.35188 463.7715">karthikhosur</tspan></text>
<text fill="#004f90" xml:space="preserve" transform="matrix(1 0 -0 1 0 841.89)" font-size="14.3462" font-family="SourceSansPro" font-weight="bold"><tspan y="-711.31198" x="55.69699 62.92748 70.4162 78.66527 86.12529 91.9355 95.95244 103.41246 111.66153 117.988208">Experience</tspan></text>
<path transform="matrix(1,0,0,-1,129.7,130.17902)" stroke-width=".797" stroke-linecap="butt" stroke-miterlimit="10" stroke-linejoin="miter" fill="none" stroke="#004f90" d="M0 0H408.849"/>
<text xml:space="preserve" transform="matrix(1 0 -0 1 0 841.89)" font-size="9.9626" font-family="SourceSansPro" font-weight="bold"><tspan y="-691.914" x="62.363 67.92213 70.711658 76.07153 81.800029 84.589557 88.04658 95.299358 102.03407 107.105037 112.38521 115.27436 119.13985">SignifyHealth</tspan></text>
<text xml:space="preserve" transform="matrix(1 0 -0 1 0 841.89)" font-size="9.9626" font-family="SourceSansPro"><tspan y="-691.914" x="124.868 129.35117 134.67119 140.07093 143.03479 145.99868 153.0522 158.07335 161.4407 168.37468 173.62497 179.07451 184.10562 186.56639 192.01593 196.95738 201.89884">,SoftwareEngineer</tspan></text>
<text xml:space="preserve" transform="matrix(1 0 -0 1 0 841.89)" font-size="9.9626" font-family="SourceSansPro"><tspan y="-677.124" x="75.644">&#x2022;</tspan></text>
<text xml:space="preserve" transform="matrix(1 0 -0 1 0 841.89)" font-size="9.9626" font-family="SourceSansPro"><tspan y="-677.124" x="83.664 89.800968 94.74242 98.91675 101.37751 106.40862 111.85816 116.799617 124.54056 129.5617 135.01125 142.75218 148.28142 153.27269 157.89533 162.83678 165.37725 170.77698 176.30622 181.24767 188.9886 197.2476 202.66725 205.20772 208.58504 211.0458 216.57505 219.11551 226.26866 232.40563 234.8664 239.88755 245.33708 250.22872 257.84016 262.8613 268.39054 273.91978 276.46025 278.921 283.3643 288.24598 291.6233 294.08406 299.48377 304.93333 311.32929 318.48243 320.94319 324.3205 331.95185 339.1847 341.99415 347.39387 351.9368 357.35646 363.74247 369.14219 376.80345 380.97776 385.42106 390.4422 392.98268 398.0038">DesignedanddevelopedmultipleDjangoapplicationswithafocusonscala-</tspan><tspan y="-665.169" x="83.664 89.18328 91.64404 94.18451 96.64527 100.02259 104.336399 108.70001 113.641468 116.52065 119.39985 121.86061 126.40356 128.86432 133.80577 139.25531 143.85802 148.17182 152.53543 157.55658 163.00612 170.37844 174.35352 177.52162 182.54277 188.06206 190.52283 193.0633 195.52407 198.90139 203.21518 207.5788 210.94615 215.8876 220.06194 225.48159 228.02205 231.39937 233.86014 239.30968 246.18387 248.64464 255.92729 262.79154 267.74296 272.69438 282.7566 285.21736 290.6669 295.20985 298.57719 303.37916 308.4003 312.57463 319.35914 321.8199 329.11253 334.53218 338.70649 343.64793 348.95799 353.8994 359.34898 364.22068 369.24183 374.13349 379.07493 387.33393 392.27537 397.7249">bility,efficiency,andstability,resultingina30%increaseinuserengagement</tspan><tspan y="-653.214" x="83.664 88.68515 94.13469 101.656459 108.67013 113.62154 118.57295 128.78462 134.31386 139.25531 143.79825 147.1656 151.96758 156.98873 161.16306 168.09703 170.5578 177.99987 183.51915 188.9388 193.96991">anda25%decreaseinbugs</tspan></text>
<text xml:space="preserve" transform="matrix(1 0 -0 1 0 841.89)" font-size="9.9626" font-family="SourceSansPro"><tspan y="-638.424" x="75.644">&#x2022;</tspan></text>
<text xml:space="preserve" transform="matrix(1 0 -0 1 0 841.89)" font-size="9.9626" font-family="SourceSansPro"><tspan y="-638.424" x="83.664 89.352649 94.75237 97.29284 99.833309 104.854457 110.37373 115.77346 119.00134 123.88302 127.120868 132.06232 139.604 146.75716 149.21793 152.59525 160.01738 164.56034 167.92769 173.32743 177.50176 181.77571 184.87409 187.78316 193.2028 198.65235 203.09566 206.47298 208.93375 214.33348 219.78302 224.80417 229.35709 232.59493 237.3969 242.41805 250.67705 256.86384 260.10169 267.51387 273.0431 277.98454 280.525 282.98576 287.6084 292.54985 298.0193 303.43894 305.8997 310.9308 316.35044 319.4488 324.97804 330.39768 335.41883 337.9593 340.42005 343.79737 350.47233 354.64665 360.04637 363.01023 365.9741 373.0276 378.04875 381.41609 388.36997 392.54429 398.00379">Collaboratedwithcross-functionalteamstodeliverhigh-qualitysoftwareso-</tspan><tspan y="-626.469" x="83.664 86.20447 91.62412 95.00144 97.462207 102.86193 108.31147 112.4858 116.5605 119.02126 124.4708 129.01375 131.55422 136.97386 142.5031 144.96387 150.4134 156.91899 162.2988 167.31995 171.86289 176.61505 181.5565 187.00605 194.0197 199.43935 205.08814 209.18277 214.712 219.70328 224.32592 229.26737 231.80783 237.20757 242.7368 250.9958 255.93726 261.3868 264.8239 268.89863 274.42787 279.30955 282.47764 288.98323 297.24223 302.64195 308.17118 313.1126 315.65309 318.11384 323.5634 328.59449 332.6692 337.69035 343.1399 350.1436 353.38145 358.32289 362.29795 365.67527 368.13603 373.58558 378.6167 382.6914 389.84455 392.3053 395.68263">lutions,includingbackendAPIdevelopment,datamodeling,andtesting,with</tspan><tspan y="-614.514" x="83.664 90.67767 95.62909 100.580509 110.792179 114.96651 119.84818 123.2255 125.686267 129.8606 132.57042 137.59157 142.0349 145.41222 147.87299 153.27272 160.71479 163.94266 168.82433 172.06217 178.99614 181.90522 185.27257 190.6723 200.92383 204.89891 208.06702 213.08817 217.84033 222.78179 228.20143 233.60117 236.14163 241.67087 246.61232 250.03945">a95%satisfactionratefromstakeholders</tspan></text>
<text xml:space="preserve" transform="matrix(1 0 -0 1 0 841.89)" font-size="9.9626" font-family="SourceSansPro"><tspan y="-599.724" x="75.644">&#x2022;</tspan></text>
<text xml:space="preserve" transform="matrix(1 0 -0 1 0 841.89)" font-size="9.9626" font-family="SourceSansPro"><tspan y="-599.724" x="83.664 86.284168 94.54316 100.0724 103.439769 108.799648 113.422298 118.36375 125.82574 130.8469 136.37613 141.90537 144.44583 146.9066 151.34993 156.2316 159.60892 162.06969 167.46942 174.8517 180.38094 185.32239 188.78937 191.59882 196.99855 200.46553 208.72454 213.74568 219.19522 223.52895 230.4131 235.89253 242.48777 247.43918 252.3906 262.54249 265.9198 271.33946 274.7068 280.1065 285.52616 290.55726 297.90965 303.30937 308.66923 312.04655 314.5073 322.7663 325.22706 329.23204 334.1137 337.49104 339.95179 345.3515 352.74378 358.1435 362.98533 368.51457 373.39625 376.56434 381.58549 386.9653 391.98646 396.16078">Improvedapplicationperformanceby40%throughoptimizationofdatabase</tspan><tspan y="-587.769" x="83.664 89.193248 94.6129 99.55435 103.02134 105.4821 110.42355 114.597888 119.0412 127.30019 132.24164 140.50064 145.90038 149.61643 156.23159 161.65123 165.82556 170.84671 175.73834 180.6798 185.12311 190.14426 195.5938 203.06574 207.24007 212.18152 215.89757 220.5202 225.46166 230.8813 235.21504 240.61478 246.06432 248.74924 251.43416 256.46528 261.88493 265.1128 269.99449 273.3718 275.83256 281.23228 286.68183 291.12516 296.1463 300.68925 306.1089 308.56965 313.56089 318.2234 320.68415 326.1337 333.11747 337.98918 342.27308 346.60679 351.54823 356.90809 360.2854 362.74617 368.14588 373.59544 378.61659 383.09977 388.5194 392.69374 397.63517">queries,memoryusage,andserverconfiguration,achievingexceptionaluser</tspan><tspan y="-575.813" x="83.664 88.53571 92.989 98.51824 103.459697 106.92668 109.38744 114.328899 119.778438 124.11217 131.04615 136.06729 141.51683 149.03859 157.29759 162.23905 167.08087 170.45819 172.91896 178.3685 185.39214 190.91143 196.33107 200.5054 202.96617 208.41571 213.35717 217.5315 223.69835 227.0657 232.00716 237.53639 242.95604 245.41681 248.78417 253.72562 261.98463 266.92607 272.3756 275.6533">experienceandmeetingbusinessrequirements</tspan><tspan y="-692.323" x="499.588 505.27668 510.69633 513.1571 517.60049 522.62167 527.5133">Chicago</tspan><tspan y="-680.368" x="445.74003 450.52207 455.9417 458.48219 465.1372 470.08863 475.04005 479.99147 486.9354 493.70997 498.492 503.91166 506.45213 513.1071 518.05856 523.00997 527.96139">July2024&#x2013;July2024</tspan></text>
<text fill="#004f90" xml:space="preserve" transform="matrix(1 0 -0 1 0 841.89)" font-size="14.3462" font-family="SourceSansPro" font-weight="bold"><tspan y="-546.542" x="55.69702 63.7022 71.649997 75.66693 79.82733 83.98773">Skills</tspan></text>
<path transform="matrix(1,0,0,-1,94.637,294.95)" stroke-width=".797" stroke-linecap="butt" stroke-miterlimit="10" stroke-linejoin="miter" fill="none" stroke="#004f90" d="M0 0H443.911"/>
<text xml:space="preserve" transform="matrix(1 0 -0 1 0 841.89)" font-size="9.9626" font-family="SourceSansPro"><tspan y="-527.164" x="62.363 67.89224 73.24216 76.67925 80.6344 86.77136 92.17109 96.714038 101.466197 106.407649 109.30676 113.251949 118.502239 121.0427 126.06385 130.03893 133.41625 135.87702 140.41996 144.59429 149.39626 154.4174 157.78476 162.3277 167.74735 171.7025 177.47084 182.49199 185.40106 190.23293 195.25408 199.20923 204.83809 210.25774 215.77703 220.71848 224.18546 229.635 234.47682 237.71466 242.65612 246.83045 250.77564 256.09568 263.14918 268.17033 273.20143 278.09309 283.03453 285.93363 289.8888 295.2985 300.6982 304.67329 308.0506 316.3096 321.33076 326.7803 330.7255 335.50755 340.5287 344.99195 350.0131 353.96827 359.65693 364.60835 369.55976 373.51493 379.20359 384.155 389.1064 393.0516 398.3019 403.75148 406.98933 411.93077 415.39775 420.92698 424.39396 426.8547 431.02903 437.30546 442.0875 447.10865 451.5719 456.59306 462.45106 467.25303 472.27418 477.72373 481.89805 485.84324 490.62528 495.64643 500.10969 505.13084 509.086 513.86807 518.8892 523.3524 528.3736 532.5479 537.0909 540.55789 543.0186 548.3785 551.81558">dbt,Docker,Elasticsearch,Kafka,Kubernetes,Swagger,Postman,Java,C++,C++,EnterpriseJavaBeans,Java,Javascript,</tspan><tspan y="-515.209" x="62.363 68.011798 72.67429 76.05161 81.47127 86.870998 92.32053 96.8037 102.12373 107.57327 112.93315 120.086299 122.81605 125.5458 130.56696 135.31912 140.26058 144.74375 149.52579 154.54694 159.01018 164.03133 168.5145 174.16329 178.82578 182.2031 187.62274 193.02248 198.47202 202.95519 208.64383 213.59525">Python,Snowflake,Java,Python,C++</tspan></text>
<text fill="#004f90" xml:space="preserve" transform="matrix(1 0 -0 1 0 841.89)" font-size="14.3462" font-family="SourceSansPro" font-weight="bold"><tspan y="-488.77198" x="55.697 64.06084 71.52086 77.33107 82.89739 86.91433 91.411869 95.90939 102.4943 109.82521 115.39153 119.40847 127.39931 135.64838">Certifications</tspan></text>
<path transform="matrix(1,0,0,-1,146.298,352.71903)" stroke-width=".797" stroke-linecap="butt" stroke-miterlimit="10" stroke-linejoin="miter" fill="none" stroke="#004f90" d="M0 0H392.25"/>
<text xml:space="preserve" transform="matrix(1 0 -0 1 0 841.89)" font-size="9.9626" font-family="SourceSansPro" font-weight="bold"><tspan y="-469.374" x="62.363 68.709178 74.158718 80.01672 84.41023 89.59078 93.62563 97.49112 100.28065 103.40392 106.5272 111.10004 116.190929 119.86712 127.04019 132.36023 138.7064 144.4648 152.02642 156.41992 161.60048 165.63533 169.50083 172.29035 175.41362 178.5369 183.10973 188.20063 192.06612 194.85565 200.40482">Dbtcertificate-DBTcertification</tspan></text>
<text xml:space="preserve" transform="matrix(1 0 -0 1 0 841.89)" font-size="9.9626" font-family="SourceSansPro"><tspan y="-469.783" x="493.71 498.49205 503.91169 506.45216 513.1072 518.0586 523.01 527.9614">July2024</tspan></text>
<text fill="#004f90" xml:space="preserve" transform="matrix(1 0 -0 1 0 841.89)" font-size="14.3462" font-family="SourceSansPro" font-weight="bold"><tspan y="-443.34599" x="55.69699 64.30471 69.97146 77.962299 82.00793 89.46795 96.05286 101.475719">Projects</tspan></text>
<path transform="matrix(1,0,0,-1,112.125,398.14604)" stroke-width=".797" stroke-linecap="butt" stroke-miterlimit="10" stroke-linejoin="miter" fill="none" stroke="#004f90" d="M0 0H426.423"/>
<text xml:space="preserve" transform="matrix(1 0 -0 1 0 841.89)" font-size="9.9626" font-family="SourceSansPro" font-weight="bold"><tspan y="-423.948" x="62.363 68.709178 71.4987 75.742778 79.60826 83.64311 86.43264 92.16113 97.85974 101.535938 106.716487 114.4375 120.20585 125.75502 128.64418 131.53334 134.32288 140.05138 147.40378 153.14225 158.87075 164.59925 167.4884 170.27793 174.85076 179.94165 183.80715 186.59668 192.14585">DistributedPollingApplication</tspan></text>
<text xml:space="preserve" transform="matrix(1 0 -0 1 0 841.89)" font-size="9.9626" font-family="SourceSansPro"><tspan y="-409.158" x="75.644">&#x2022;</tspan></text>
<text xml:space="preserve" transform="matrix(1 0 -0 1 0 841.89)" font-size="9.9626" font-family="SourceSansPro"><tspan y="-409.158" x="83.664 89.800968 94.79223 99.41488 104.35633 106.8968 112.296527 117.82577 122.76722 130.74727 138.21923 142.76218 145.30265 150.70238 156.12203 161.65126 164.74964 170.12944 175.15059 179.32492 184.26638 189.79561 194.85662 199.03095 203.47426 208.4954 211.03588 216.05702 221.57631 224.11678 231.50904 237.646 240.10677 244.08185 247.45917 250.92615 253.38692 258.9062 264.32585 267.5637 272.50514 280.48518 285.89488 291.2946 293.83506 296.37553 298.83628 304.28584 311.76777 317.1874 322.71665 328.24589 330.78636 333.2471 337.6904 342.57209 345.9494 348.41017 353.80989 361.71025 364.51969 369.32167 374.20335 377.58067 383.0003 386.4673 388.92805 394.3776 401.86946 405.2368 410.03877 415.0599 417.60038 420.4397 423.81703 426.27778 434.53678 441.92903 447.45826 452.85798 455.39845 457.9389 460.39967 465.8492 470.8803 475.93138 481.4606 486.1231 491.57267 496.5938 504.8528 507.31358 514.3073 519.83657 524.71829 527.88638">Developedacloud-based,scalableDistributedPollingApplicationfeaturingreal-timepolling,dynamicdata</tspan><tspan y="-397.203" x="83.664 88.68515 94.13469 99.15584 101.696308 106.3588 109.73612 112.196887 116.73983 120.91416 125.39733 130.41849 135.86803 143.38979 147.56412 152.50557 157.04853 162.46817 165.83553 172.7695 178.18915 182.36348 187.30493 192.76444 197.78559 203.20523 206.58255 212.0022 216.94365 222.39319 225.77051 228.23128 232.6746 237.55628 240.9336 243.39437 248.7941 256.23616 258.6969 266.13899 273.15266 281.41166 283.8724 288.41535 291.78269 297.1824 301.35673 306.29817 310.0142 314.6767 317.13746 321.47117 326.4126 332.57945 337.6006 340.96794 345.51087 350.9305 353.39128 356.62913 361.57057 366.01387 369.39118 374.81083 378.17817 383.1196">analytics,andsecureuserauthenticationinamicroservicesarchitecture.</tspan></text>
<text xml:space="preserve" transform="matrix(1 0 -0 1 0 841.89)" font-size="9.9626" font-family="SourceSansPro"><tspan y="-382.413" x="75.644">&#x2022;</tspan></text>
<text xml:space="preserve" transform="matrix(1 0 -0 1 0 841.89)" font-size="9.9626" font-family="SourceSansPro"><tspan y="-382.413" x="83.664 88.91429 94.36383 98.53816 103.95782 107.32518 112.26663 120.406078 123.77344 129.17317 134.69246 140.1121 144.08719 150.0747 154.24904 158.69237 163.71352 166.25399 171.27513 176.79442 179.25519 181.79566 184.25643 187.63375 194.90644 199.92758 205.37712 213.51656 218.45801 221.3372 224.21639 226.67716 231.2201 233.68087 238.62232 244.07186 248.67458 255.94727 261.347 269.41673 273.95967 276.50013 281.89985 287.3195 292.84873 298.09904 305.25218 307.71293 311.09025 319.1201 324.30067 329.6207 334.46253 337.94944 343.2894 347.91206 355.8423 360.78373 366.23329 370.7762 374.49226 379.15476 384.51463 387.89195 390.3527 395.7524 403.81217 406.6216 412.02134 418.1085 422.2828 427.22425 431.76719 437.18684 440.6538 443.11457 446.49189 450.8057 456.056 464.315 469.33616 474.26765 476.7284 482.17796 489.81925 492.28 498.26753 500.72828 506.2575 511.05949 516.0806 521.2313 524.0408 529.4405">Ensuredrobustscalabilityandefficiencyoncloud,withSSL/TLSencryptionforsecurity,makingitidealfor</tspan><tspan y="-370.458" x="83.664 86.20447 91.22562 94.59298 99.48462 104.525699 107.62406 111.79839 116.241718 121.26286 123.80333 128.74478 133.22795 138.6476 141.10837 146.13948 151.55913 154.39847 157.77579 161.00366 166.02481 168.904 171.78319 174.24396 180.77942 184.95375 190.3734 194.08945 198.71208 203.70336 210.35837 215.37952 220.82906 228.35082 233.88005 239.27979 241.82025 244.36072 246.82149 252.27103 259.29466 263.46897 267.80268 272.7441 278.19367 283.2148 286.6818 289.14256 294.54228 298.71659">large-scale,high-trafficsurveyandpollingscenarios.</tspan></text>
<text xml:space="preserve" transform="matrix(1 0 -0 1 0 841.89)" font-size="9.9626" font-family="SourceSansPro" font-weight="bold"><tspan y="-349.99903" x="62.363 68.42026 73.60081 78.04413 83.74274 92.32053 97.60071 100.928218 106.586978 111.86716 115.81235 120.25567 125.43622">Resume-Parser</tspan></text>
<text xml:space="preserve" transform="matrix(1 0 -0 1 0 841.89)" font-size="9.9626" font-family="SourceSansPro"><tspan y="-335.209" x="75.644">&#x2022;</tspan></text>
<text xml:space="preserve" transform="matrix(1 0 -0 1 0 841.89)" font-size="9.9626" font-family="SourceSansPro"><tspan y="-335.209" x="83.664 86.284168 94.54316 100.0724 102.61287 107.55432 115.81332 120.75477 126.20431 129.44216 134.3836 141.23787 146.68741 151.56908 154.9464 157.40717 162.0298 168.30625 170.76702 176.21656 179.45439 184.29622 189.32733 192.5552 197.43688 200.8142 203.27497 208.6747 215.44927 218.25872 223.65845 228.45046 235.56375 240.5052 247.34952 252.37067 257.82023 264.68446 268.0518 272.8936 276.2709 281.69056 285.15754 290.6071 293.06785 298.5174 304.87355 311.98683 316.92826 319.46873 322.0092 325.10755 329.0826 332.45994 335.9269 341.34657 345.78987 349.16719 354.58683 357.95417 362.8956 368.42485 372.38 377.18199 382.20314 386.37745 391.03996 393.87928 397.11714 402.57664 405.675 409.04234 413.8443 418.86546 425.7197 431.24894 436.64866 441.1916 446.61125 454.87025 459.81169 465.26124 468.42933 473.311 476.68833 479.14909 484.5488 491.32337 494.1328 499.53254 504.3345 510.68067 516.32949 520.99197 524.36929 529.78897 535.18869 540.6382">Implementednativeintegrationforwebandreturningwell-structured,easy-to-readdocumentationforaPython-</tspan><tspan y="-323.25404" x="83.664 89.04381 94.06496 98.23929 103.18074 110.70251 116.23175 119.59911 124.99884 127.4596 132.40105 136.84438 140.28147 144.76464 150.18428 153.5616 156.02237 158.56284 161.0236 165.2577 167.71848 173.16802 180.19165 185.06337 189.51665 195.04589 199.98734 203.45432 206.83164 209.2924 213.46674 220.40071 222.86148 230.30355 235.72319 240.7543 243.21508 245.75554 252.68952 260.94853 265.7903 269.16764 274.58729 279.987 285.51625 290.91596 293.45643 298.85615 303.88728 306.34803 311.28947 315.46379">basedproject,utilizingexpertiseinAgilemethodologies.</tspan></text>
<text xml:space="preserve" transform="matrix(1 0 -0 1 0 841.89)" font-size="9.9626" font-family="SourceSansPro"><tspan y="-308.46403" x="75.644">&#x2022;</tspan></text>
<text xml:space="preserve" transform="matrix(1 0 -0 1 0 841.89)" font-size="9.9626" font-family="SourceSansPro"><tspan y="-308.46403" x="83.664 89.800968 94.74242 98.91675 101.37751 106.40862 111.85816 116.799617 124.89921 132.50067 137.95021 142.94149 152.665 156.83933 161.50182 165.4769 168.71474 173.65619 184.48555 187.72339 195.70343 203.96244 208.98358 214.43312 219.45427 224.3459 231.85771 234.31848 239.76802 243.00586 247.94731 251.17519 256.19636 260.63966 264.01698 266.47773 271.87745 277.327 281.5013 286.71177 291.6532 297.10276 302.1239 307.6432 310.18367 312.6444 318.09397 325.6954 329.86973 338.12873 343.52845 348.7588 352.1361 357.55577 362.4972 368.5445 372.8782 378.27793 380.8184 383.35887 388.38 393.8993 399.299 402.5269 407.40858 410.7859 413.24665 418.64637 426.66627 431.6874 437.13697 445.23655 450.76579 455.64747 458.81556 466.40705 470.58137 475.24388 480.69343 485.23637 490.656 494.02336 499.42308 504.87263 507.33338 511.33836 516.22006 519.59738 522.0581 527.4578">Designedanewsystemtomanageinteractions,enablingsmoothercollaborationanddatasynchronization</tspan><tspan y="-296.50804" x="83.664 89.08366 93.25799 95.71875 101.16829 108.191928 113.84072 118.50322 121.88054 127.30019 132.69992 140.14199 145.67122 149.03858 154.43831 159.46942 162.6973 167.71845 175.97745 184.23645 186.69722 192.14676 199.1704 201.71086 206.73201 212.18155 217.21266 222.63231 227.65346 232.54509 237.48654 241.96971 245.33707 250.27852 254.45285 259.8725 262.41297 265.79029 268.25105 273.7006 280.7242 283.18498 290.62705 293.0878 301.3468 306.87605 310.24339 315.60325 320.2259 325.16734 332.6891 337.63053 340.5097 343.38893 345.84968 350.3926 352.85337 357.7948 363.24436 367.84709 374.5021 379.52326 384.9728 392.49458 398.0238 402.9055 406.07359 413.08726 415.548 420.99757 424.2354 429.0772 434.10835 437.57533 440.03608 443.4134 447.7272">usingPythonprogramminglanguage,resultinginimprovedefficiencyanddataintegrity.</tspan></text>
<text xml:space="preserve" transform="matrix(1 0 -0 1 0 841.89)" font-size="9.9626" font-family="SourceSansPro"><tspan y="-281.71803" x="75.644">&#x2022;</tspan></text>
<text xml:space="preserve" transform="matrix(1 0 -0 1 0 841.89)" font-size="9.9626" font-family="SourceSansPro"><tspan y="-281.71803" x="83.664 88.54567 91.77355 96.7947 102.24424 106.41857 108.87933 112.25665 114.717418 120.11714 125.56668 130.50814 137.98007 144.95389 147.49436 152.33618 157.20789 162.22904 166.83174 173.43694 179.08573 183.74822 187.12554 192.54518 197.94492 205.34712 210.87636 214.24372 219.64345 222.10422 227.04567 231.489 236.81899 242.23863 246.41297 248.87374 254.32328 261.2971 264.6744 268.1414 270.60215 275.54359 283.02549 288.04664 293.4962 300.96815 304.206 309.14744 313.1225 316.36036 321.3018 328.7837 333.80485 338.83595 341.2967 343.83717 350.7213 358.98033 363.8221 367.19944 372.61909 378.0188 383.54804 388.94776 391.48823 396.88795 401.91908 404.37983 409.32127 413.49559 417.9389 422.88035 428.3299 432.5042 437.92387 441.39085 443.8516 449.30116 456.28495 461.22639 464.10557 466.98478 469.44554 473.98847 476.44923 481.39067 486.8402 492.16026 497.03196 501.31587 506.2573 510.80024 516.2199 519.5972 522.058 527.4577">TransitionedalegacyPythonprojectusingtriedandtestedagilemethodologies,ensuringefficientexecution</tspan><tspan y="-269.76304" x="83.664 88.68515 94.13469 101.656459 105.63154 108.799648 113.82079 118.57295 123.514408 128.93405 134.33379 136.87425 142.40349 147.34494 152.80445 156.97878 161.86045 165.23777 167.69853 171.87287 174.58269 179.60384 184.04717 187.42449 189.88526 195.28499 200.73453 205.2177 212.37085 217.7905 220.25127 222.79174 229.72571 235.25495 240.1964 248.4554 253.85514 259.3047 263.27976 266.65708 269.88496 274.76664 278.14396 280.6047 286.05427 293.0779 297.94963 302.4029 307.93214 312.87358 316.34056 319.71788 322.17863 326.35295 333.2869 335.74766 343.18974 348.21089 353.7401 358.76127 364.12113 367.49845 369.9592 375.40876 382.4324 385.67027 393.0625 395.60298 400.44477 405.3165 410.33766 414.94038 421.5954 425.9291 431.32884 436.85807 441.7995">andstakeholdersatisfaction,whiledemonstratingexpertiseinadaptingtolegacycode.</tspan></text>
</svg>
