<svg xmlns="http://www.w3.org/2000/svg" xmlns:xlink="http://www.w3.org/1999/xlink" version="1.1" width="595.276" height="841.89" viewBox="0 0 595.276 841.89">
<text xml:space="preserve" transform="matrix(1 0 -0 1 0 841.89)" font-size="24.9066" font-family="CharterBT"><tspan y="-766.741" x="246.38 257.43855 270.8632 284.91053 305.9815 323.2418 336.66645">JohnDoe</tspan></text>
<text xml:space="preserve" transform="matrix(1 0 -0 1 0 841.89)" font-size="9.9626" font-family="CharterBT"><tspan y="-743.827" x="104.252 110.54836 116.16727 118.956798 123.400119 128.45116 133.66159 139.03144 144.57065 147.79853">Chicago,IL</tspan></text>
<text xml:space="preserve" transform="matrix(1 0 -0 1 0 841.89)" font-size="9.9626" font-family="LMMathSymbols10" font-style="italic"><tspan y="-743.827" x="157.95999">|</tspan></text>
<text fill="#0000ff" xml:space="preserve" transform="matrix(1 0 -0 1 0 841.89)" font-size="9.9626" font-family="CharterBT"><tspan y="-743.827" x="165.70899 168.35904 173.72888 179.3478 185.00655 187.77616 193.40503 198.77487 203.6665 213.05127 218.2617 226.66017 231.71121 234.50074 237.31018 240.07979 244.5231 249.89295">john.doe@gmail.com</tspan></text>
<text xml:space="preserve" transform="matrix(1 0 -0 1 0 841.89)" font-size="9.9626" font-family="LMMathSymbols10" font-style="italic"><tspan y="-743.827" x="263.27299">|</tspan></text>
<text fill="#0000ff" xml:space="preserve" transform="matrix(1 0 -0 1 0 841.89)" font-size="9.9626" font-family="CharterBT"><tspan y="-743.827" x="271.02198 279.32084 287.62965 293.16886 298.70808 307.01689 312.5561 318.0953 326.4041 331.94334 337.48255 343.02177">+13123584237</tspan></text>
<text xml:space="preserve" transform="matrix(1 0 -0 1 0 841.89)" font-size="9.9626" font-family="LMMathSymbols10" font-style="italic"><tspan y="-743.827" x="353.54197">|</tspan></text>
<text fill="#0000ff" xml:space="preserve" transform="matrix(1 0 -0 1 0 841.89)" font-size="9.9626" font-family="CharterBT"><tspan y="-743.827" x="361.29096 364.1004 366.88993 372.54869 377.69935 382.59098 388.21986 391.00938 396.66813 399.4377 403.88105 409.2509 417.64936 422.44139 425.2309 430.88966 435.68168 440.83235 445.88337 449.6891 453.0166 458.6355 461.42503 466.57569 472.19459 477.56443 481.54948 487.2182">linkedin.com/in/karthikhosur</tspan></text>
<text xml:space="preserve" transform="matrix(1 0 -0 1 0 841.89)" font-size="11.9552" font-family="CharterBT" font-weight="bold"><tspan y="-724.898" x="55.69696 62.822259 69.17047 76.23599 82.50052 87.53366 91.18 97.44453 104.67742 110.368099">Experience</tspan></text>
<path transform="matrix(1,0,0,-1,55.697,122.37201)" stroke-width=".398" stroke-linecap="butt" stroke-miterlimit="10" stroke-linejoin="miter" fill="none" stroke="#000000" d="M0 0H482.886"/>
<text xml:space="preserve" transform="matrix(1 0 -0 1 0 841.89)" font-size="9.9626" font-family="CharterBT" font-weight="bold"><tspan y="-706.158" x="56.693 62.351758 68.100177 71.49742 75.06403 83.024158 88.44381 92.63806 100.75758 106.6953 112.72267 118.21207 121.250659 127.27803 132.49843 137.71883">SoftwareEngineer</tspan></text>
<text xml:space="preserve" transform="matrix(1 0 -0 1 0 841.89)" font-size="9.9626" font-family="CharterBT"><tspan y="-706.158" x="141.914 147.45322 152.99242 155.78195 160.99239 166.65114 169.44068 172.63867 180.33977 187.69217 192.5838 197.63484 200.44429 203.7718 212.16033 219.91123 226.20758 231.82649 234.61603 239.05934 244.11038 249.32082">,SignifyHealth&#x2013;Chicago</tspan><tspan y="-706.267" x="442.542 446.9654 452.63414 455.44358 463.14466 468.68388 474.22309 479.7623 488.0711 495.822 500.2454 505.91413 508.72358 516.4246 521.9638 527.503 533.0422">July2024&#x2013;July2024</tspan></text>
<text xml:space="preserve" transform="matrix(1 0 -0 1 0 841.89)" font-size="8.9664" font-family="LMMathSymbols9" font-style="italic"><tspan y="-691.84207" x="57.066987">&#x2022;</tspan></text>
<text xml:space="preserve" transform="matrix(1 0 -0 1 0 841.89)" font-size="9.9626" font-family="CharterBT"><tspan y="-691.36807" x="66.65598 73.56007 78.451709 82.436748 85.22627 90.436717 96.095478 100.987117 109.38558 114.43662 120.09538 128.49385 134.12273 139.01436 143.93589 148.82752 151.63697 157.0068 162.4962 167.38784 175.78632 184.18479 189.8535 192.66295 195.99047 198.78 204.2694 207.07884 214.74008 221.64417 224.29422 229.34526 235.00402 240.21445 248.3539 253.40494 258.89433 264.3837 267.19316 269.98268 274.426 279.47703 282.80455 285.59407 290.9639 296.62266 303.3773 311.05845 313.84797 317.17549 325.56398 333.38459 336.58259 341.95243 346.39576 352.06449 358.81913 364.18898 372.6173 376.60237 381.0457 386.0967 388.90617 393.95719 399.32704 402.11656 404.926 407.7155 411.04304 414.63954 420.1787 425.07035 428.26835 431.1276 433.98689 438.4302 441.21974 446.11137 451.7701 456.21345 459.80995 465.34913 470.40016 476.0589 484.45738 488.4424 491.76994 496.82096 502.1908 504.98033 507.78977 510.57929 513.9068 517.5033">DesignedanddevelopedmultipleDjangoapplicationswithafocusonscalability,efficiency,andstability,</tspan><tspan y="-679.413" x="66.65598 70.46169 75.35333 79.33837 85.00709 87.81654 91.14405 93.93358 99.59234 107.57238 110.36191 118.79027 126.61091 132.15012 137.68932 148.94705 151.73657 157.39533 161.83864 165.64435 170.53598 175.58702 179.57207 187.2333 190.02283 198.45119 204.1199 208.10495 212.99658 219.5719 224.46353 230.12229 235.33272 240.38376 245.5942 250.48583 258.8843 263.77595 269.4347 275.5318 280.58283 286.24159 294.64006 302.46067 307.99989 313.5391 324.7968 330.4257 335.31733 339.76066 343.56639 348.458 353.50904 357.49409 365.1553 367.94483 376.37318 381.743 387.41175 392.6222">resultingina30%increaseinuserengagementanda25%decreaseinbugs</tspan></text>
<text xml:space="preserve" transform="matrix(1 0 -0 1 0 841.89)" font-size="8.9664" font-family="LMMathSymbols9" font-style="italic"><tspan y="-665.09707" x="57.066984">&#x2022;</tspan></text>
<text xml:space="preserve" transform="matrix(1 0 -0 1 0 841.89)" font-size="9.9626" font-family="CharterBT"><tspan y="-664.62307" x="66.65598 72.95235 78.32219 81.131649 83.9411 88.99214 94.361988 99.73183 103.53754 108.58858 111.916088 116.807727 125.20619 132.88736 135.67688 139.0044 147.39292 151.83623 155.64194 161.01178 164.99683 168.98188 172.15995 175.35794 181.02666 186.68541 191.12873 194.45624 197.24576 202.6156 208.27436 213.3254 218.90445 222.23197 227.1236 232.17464 240.5731 247.32776 250.65528 258.7947 264.42359 269.31523 272.12467 274.91419 279.83573 284.72737 291.30268 296.92158 299.7111 304.92155 310.54045 313.7185 319.00865 324.67738 329.7284 332.53785 335.32737 338.65489 346.35597 350.341 355.71086 358.90885 362.23637 369.9175 374.96855 378.77427 386.4355 390.42054 395.79039 398.59983 404.26856 407.59608 410.3856 415.75544 421.41419 425.39924 430.93843 433.72795 439.3867 443.83003 446.63948 452.3082 457.93708 460.7266 466.38536 474.3654 479.73524 484.78627 489.22959 494.38026 499.27189 504.93064 513.3291 519.6952 525.25436">Collaboratedwithcross-functionalteamstodeliverhigh-qualitysoftwaresolutions,includingbackendAPI</tspan><tspan y="-652.66708" x="66.65598 72.28485 77.17649 82.098018 86.989658 89.79911 95.16895 100.65835 109.05682 113.94846 119.60722 122.93473 128.47394 134.10282 139.15386 142.48137 150.30202 158.70049 164.07033 169.6992 174.59084 177.40029 180.18982 185.84857 191.059 196.59822 201.64926 207.30802 215.7065 219.03401 223.92565 227.91069 231.2382 234.02774 239.6865 244.89693 250.43614 258.1173 260.90684 264.23435 272.62284 280.44346 285.98268 291.52189 302.7796 306.76466 311.81568 315.1432 317.9327 321.91777 325.11576 330.16679 334.6101 337.93763 340.72715 346.097 354.52534 358.33106 363.38209 366.7096 374.37083 377.56883 381.37455 386.7444 397.91246 401.8975 405.225 410.27604 415.4267 420.31834 425.93724 431.30708 434.11653 439.7454 444.63703 448.44276">development,datamodeling,andtesting,witha95%satisfactionratefromstakeholders</tspan></text>
<text xml:space="preserve" transform="matrix(1 0 -0 1 0 841.89)" font-size="8.9664" font-family="LMMathSymbols9" font-style="italic"><tspan y="-638.3511" x="57.066984">&#x2022;</tspan></text>
<text xml:space="preserve" transform="matrix(1 0 -0 1 0 841.89)" font-size="9.9626" font-family="CharterBT"><tspan y="-637.8771" x="66.65598 69.883869 78.28233 83.77173 87.57744 92.94728 97.868808 102.760448 111.15891 116.20995 121.69935 127.18874 129.9982 132.78772 137.23104 142.28208 145.60959 148.39911 153.76895 162.19731 167.6867 172.57834 176.38405 179.58205 184.95189 188.7576 197.15607 202.2071 207.86586 212.30918 219.97042 225.34026 233.04135 238.58055 244.11975 255.37749 258.705 264.32389 268.1296 273.49946 279.16819 284.37864 292.76713 298.13697 303.62635 306.95387 309.74339 318.14186 320.93138 325.59388 330.6449 333.9724 336.76194 342.13179 350.56013 355.92997 361.89756 367.52644 372.57746 375.90498 380.956 386.32585 391.37687 395.3619 403.02314 408.31327 413.982 418.87364 422.67936 425.46888 430.3605 434.34556 439.88475 448.2832 453.17485 461.5733 466.94316 470.74888 478.44996 484.11869 488.10374 493.15476 498.3652 503.25685 508.79603 513.84707 519.5058">Improvedapplicationperformanceby40%throughoptimizationofdatabasequeries,memoryusage,and</tspan><tspan y="-625.92208" x="66.65598 70.64102 75.53266 79.33837 84.259899 89.151538 95.726848 100.170169 105.54001 111.19877 114.05804 116.9173 122.12774 127.796459 131.60218 136.65322 139.98073 142.77027 148.1401 153.79886 159.33808 164.38912 168.83243 174.45134 177.24088 182.1325 187.05403 189.84357 195.50232 203.48236 208.374 213.38518 217.82849 222.72013 228.20952 231.53704 234.32657 239.69641 245.35517 250.4062 255.98526 261.654 265.63905 270.53068 277.106 281.99763 287.00883 292.4982 297.38984 301.19557 303.98509 308.8767 314.53547 318.9788 326.64 331.69105 337.3498 345.74827 354.14674 359.03837 363.93 367.2575 370.04704 375.70579 383.68583 389.05567 394.7244 398.70945 401.49897 407.1577 412.04936 416.0344 422.78904 426.59477 431.4864 436.77653 442.44526 445.23478 449.0405 453.93214 462.3306 467.22224 472.88099 476.2085">serverconfiguration,achievingexceptionaluserexperienceandmeetingbusinessrequirements</tspan></text>
<text xml:space="preserve" transform="matrix(1 0 -0 1 0 841.89)" font-size="11.9552" font-family="CharterBT" font-weight="bold"><tspan y="-603.47109" x="55.696985 62.487539 69.09876 72.7451 76.379489 80.01387">Skills</tspan></text>
<path transform="matrix(1,0,0,-1,55.697,243.79901)" stroke-width=".398" stroke-linecap="butt" stroke-miterlimit="10" stroke-linejoin="miter" fill="none" stroke="#000000" d="M0 0H482.886"/>
<text xml:space="preserve" transform="matrix(1 0 -0 1 0 841.89)" font-size="9.9626" font-family="CharterBT"><tspan y="-584.84" x="56.693 62.32187 67.69171 71.01922 76.55842 83.4625 88.832347 93.275669 98.42633 103.31797 106.01783 111.55703 117.29549 120.10494 125.15598 129.14102 132.46854 135.25806 139.70137 143.68642 148.57805 153.62909 157.4348 161.87812 167.49703 173.03624 179.12339 184.17443 187.37242 192.52309 197.57413 203.11334 209.0112 214.67992 220.04976 224.94139 228.7471 234.40586 239.29749 242.625 247.51663 251.50168 257.0409 262.5801 270.26127 275.3123 280.52275 285.7332 290.62483 293.3247 298.8639 303.91496 309.2848 313.26985 316.59736 324.99583 330.04685 335.7056 341.24479 345.66819 350.7192 355.64076 360.69178 366.23097 372.5273 380.82618 389.12504 394.6642 400.96058 409.25944 417.5583 423.09748 428.83595 434.4947 437.8222 442.71385 446.51957 452.00895 455.81468 458.6042 462.58924 470.25047 474.67387 479.72489 484.64643 489.69746 495.71488 500.6065 505.65754 511.31629 515.30136">dbt,Docker,Elasticsearch,Kafka,Kubernetes,Swagger,Postman,Java,C++,C++,EnterpriseJavaBeans,</tspan><tspan y="-572.885" x="56.693 61.116395 66.167438 71.08896 76.14 81.6792 86.10259 91.15363 96.07516 101.1262 105.11124 109.55456 113.36027 116.149799 121.63919 124.9667 130.5059 136.06504 140.99652 144.32404 149.94295 155.31279 160.97154 166.51076 172.04996 177.70871 183.07855 190.75972 193.64389 196.52806 201.5791 206.72977 211.6214 217.16062 221.58402 226.63506 231.55658 236.60762 242.14684 247.70597 252.63745 255.96497 261.58387 266.9537 272.61247 278.15165 284.448 292.74687">Java,Javascript,Python,Snowflake,Java,Python,C++</tspan></text>
<text xml:space="preserve" transform="matrix(1 0 -0 1 0 841.89)" font-size="11.9552" font-family="CharterBT" font-weight="bold"><tspan y="-550.433" x="55.697004 63.32442 69.58894 74.622089 78.90205 82.548389 86.26645 89.98452 95.67519 102.178829 106.458789 110.105129 117.00327 124.23617">Certifications</tspan></text>
<path transform="matrix(1,0,0,-1,55.697,296.83705)" stroke-width=".398" stroke-linecap="butt" stroke-miterlimit="10" stroke-linejoin="miter" fill="none" stroke="#000000" d="M0 0H482.886"/>
<text xml:space="preserve" transform="matrix(1 0 -0 1 0 841.89)" font-size="9.9626" font-family="CharterBT" font-weight="bold"><tspan y="-531.693" x="56.693 63.82622 69.57464 76.04037 80.78256 86.00297 90.19722 93.76383 96.80242 99.90079 102.99916 107.741359 113.16101 116.72762 124.847148 130.99408 138.1273 144.38382 153.29038 158.03258 163.25298 167.44724 171.01384 174.05243 177.1508 180.24916 184.99137 190.41101 193.97762 197.0162 202.76462">Dbtcertificate-DBTcertification</tspan></text>
<text xml:space="preserve" transform="matrix(1 0 -0 1 0 841.89)" font-size="9.9626" font-family="CharterBT"><tspan y="-531.802" x="495.823 500.2464 505.91514 508.72459 516.42568 521.96487 527.504 533.0432">July2024</tspan></text>
<text xml:space="preserve" transform="matrix(1 0 -0 1 0 841.89)" font-size="11.9552" font-family="CharterBT" font-weight="bold"><tspan y="-509.351" x="55.69699 62.714696 67.74783 74.64598 78.19668 84.461208 90.15188 94.43184">Projects</tspan></text>
<path transform="matrix(1,0,0,-1,55.697,337.919)" stroke-width=".398" stroke-linecap="butt" stroke-miterlimit="10" stroke-linejoin="miter" fill="none" stroke="#000000" d="M0 0H482.886"/>
<text xml:space="preserve" transform="matrix(1 0 -0 1 0 841.89)" font-size="9.9626" font-family="CharterBT" font-weight="bold"><tspan y="-490.611" x="56.693 63.82622 66.864818 71.3181 74.88471 79.078968 82.11755 87.865978 93.84354 97.41015 102.630558 111.467388 116.99663 122.74505 125.77368 128.8023 131.8409 137.86827 146.25678 152.74243 158.63033 164.51822 167.54685 170.58544 175.32764 180.74729 184.31389 187.35248 193.10089">DistributedPollingApplication</tspan></text>
<text xml:space="preserve" transform="matrix(1 0 -0 1 0 841.89)" font-size="8.9664" font-family="LMMathSymbols9" font-style="italic"><tspan y="-476.29499" x="57.067">&#x2022;</tspan></text>
<text xml:space="preserve" transform="matrix(1 0 -0 1 0 841.89)" font-size="9.9626" font-family="CharterBT"><tspan y="-475.82099" x="66.656 73.56008 78.45172 83.373249 88.264888 91.07434 96.44418 101.93358 106.82522 115.22369 123.04433 127.48765 130.2971 135.66695 141.33567 146.96454 150.14261 155.51245 160.56349 164.54854 169.44017 175.06905 180.60826 184.5933 189.03662 194.08766 196.89711 201.94815 207.318 210.12744 217.78868 224.69277 227.4823 231.46735 234.79486 238.60057 241.3901 246.75995 252.42867 255.75618 260.64784 269.0463 274.09736 279.4672 282.27665 285.0861 287.8756 293.53437 301.5144 307.8805 313.36988 318.85926 321.6687 324.45823 328.90156 333.95259 337.2801 340.0696 345.43946 353.8678 357.0658 361.95744 367.00846 370.33598 376.0047 379.81044 382.59996 388.2587 396.23875 400.04447 404.9361 409.98713 412.79658 415.97465 419.30216 422.09169 430.49015 438.15138 443.64076 449.0106 451.82005 454.6295 457.419 463.07777 468.2882 473.8274 479.45628 484.38777 490.0465 495.09754 503.496 506.28553 513.4985 519.1273 524.17837 527.50588">Developedacloud-based,scalableDistributedPollingApplicationfeaturingreal-timepolling,dynamicdata</tspan><tspan y="-463.865" x="66.656 71.70704 77.3658 82.41684 85.226299 90.15778 93.48529 96.27482 100.71814 104.70318 110.24238 115.29342 120.95218 129.35065 133.3357 138.22733 142.67064 148.33936 152.14507 159.8063 165.47502 169.46007 174.3517 180.92702 185.97806 191.64678 194.97429 200.5932 205.48484 211.14359 214.4711 217.26062 221.70394 226.75498 230.08249 232.87201 238.24185 246.67021 249.45975 257.8881 265.7087 274.10719 276.8967 281.34004 285.14576 290.5156 294.50065 299.39228 303.198 308.11955 310.90907 315.3524 320.24403 326.99867 332.04969 335.8554 340.29875 345.91764 348.70716 352.03468 356.9263 361.36964 364.69715 370.36589 374.1716 379.06324">analytics,andsecureuserauthenticationinamicroservicesarchitecture.</tspan></text>
<text xml:space="preserve" transform="matrix(1 0 -0 1 0 841.89)" font-size="8.9664" font-family="LMMathSymbols9" font-style="italic"><tspan y="-449.54899" x="57.066999">&#x2022;</tspan></text>
<text xml:space="preserve" transform="matrix(1 0 -0 1 0 841.89)" font-size="9.9626" font-family="CharterBT"><tspan y="-449.07499" x="66.656 72.394458 78.053218 82.03825 87.70697 91.51268 96.40432 104.80279 108.6085 113.97834 119.34818 125.0169 129.00194 135.09906 139.0841 143.52742 148.57846 151.38791 156.43895 161.80879 164.59833 167.40778 170.1973 173.52481 181.2259 186.27695 191.9357 200.33419 205.22582 208.42382 211.28308 214.14235 218.58567 221.37519 226.26682 231.92557 236.36888 244.06998 249.43982 257.86817 262.3115 265.12095 270.49079 276.15953 281.7884 287.32759 295.00874 297.79826 301.12577 309.51426 315.05348 320.59269 325.77323 330.56526 336.5129 341.69346 350.00227 354.8939 360.55265 364.99598 368.8017 373.7332 379.22257 382.55009 385.3396 390.70945 399.1378 402.3358 407.70564 414.28096 418.266 423.15763 427.60096 433.26969 437.0754 439.86494 443.19245 446.78895 452.32814 460.7266 465.77763 470.92829 473.7178 479.37657 487.3566 490.14613 496.24324 499.03276 504.66163 509.55326 514.6043 520.18338 523.38137 528.75119">Ensuredrobustscalabilityandefficiencyoncloud,withSSL/TLSencryptionforsecurity,makingitidealfor</tspan><tspan y="-437.12" x="66.656 69.465457 74.516498 78.322208 83.532649 88.424289 91.602359 95.587398 100.030719 105.08176 107.89121 112.78285 118.32205 123.940959 126.730487 131.94092 137.55983 140.7379 144.06542 147.87113 152.92217 156.12017 158.97943 161.8387 169.05162 173.03667 178.70539 182.5111 187.43262 192.32425 200.02535 205.07639 210.73514 219.13362 224.62302 229.99286 232.8023 235.61176 238.40128 244.06003 252.04007 256.02513 260.46846 265.36009 271.01884 276.06986 279.87559 282.6651 288.03495 292.02">large-scale,high-trafficsurveyandpollingscenarios.</tspan></text>
<text xml:space="preserve" transform="matrix(1 0 -0 1 0 841.89)" font-size="9.9626" font-family="CharterBT" font-weight="bold"><tspan y="-419.496" x="56.692998 63.009286 68.22969 72.682979 78.66054 87.54718 92.767589 96.015399 101.49483 106.91448 111.108737 115.56202 120.782428">Resume-Parser</tspan></text>
<text xml:space="preserve" transform="matrix(1 0 -0 1 0 841.89)" font-size="8.9664" font-family="LMMathSymbols9" font-style="italic"><tspan y="-405.18" x="57.066999">&#x2022;</tspan></text>
<text xml:space="preserve" transform="matrix(1 0 -0 1 0 841.89)" font-size="9.9626" font-family="CharterBT"><tspan y="-404.706" x="66.656 69.88388 78.28235 83.77174 86.5812 91.47284 99.87131 104.76295 110.42171 113.749217 118.640857 127.03932 132.69808 137.74912 141.07663 143.86615 148.78768 156.44892 159.23844 164.89719 168.2247 173.11634 178.32677 182.13248 187.18352 190.51103 193.30057 198.67041 207.09877 210.29677 215.66661 222.24193 229.9231 234.81473 242.95418 248.00522 253.66397 262.06245 265.86817 270.7598 274.0873 279.75605 283.56178 289.22053 292.01005 297.6688 305.64884 313.33 318.22163 321.03108 323.8405 327.0186 331.00364 334.33116 338.13688 343.8056 348.24894 351.57646 357.24519 361.0509 365.94255 371.5714 377.1106 382.00224 387.05326 391.0383 395.9698 399.14787 402.47538 407.8452 411.0233 414.829 419.72065 424.77168 433.17015 438.799 444.16886 448.61219 454.2809 462.67939 467.571 473.22978 476.55729 481.6083 484.93583 487.72535 493.09519 501.52354 504.72154 510.09138 516.6667">Implementednativeintegrationforwebandreturningwell-structured,easy-to-readdocumentationfora</tspan><tspan y="-392.751" x="66.656 72.215129 77.146617 80.47412 86.093029 91.46287 97.12163 100.2997 105.66954 110.72058 114.70562 119.59726 127.99573 133.48513 137.29084 142.66068 145.31073 150.20236 154.64568 157.97319 163.5124 169.18112 172.50864 175.29816 178.1076 180.89713 185.55962 188.34915 194.0079 201.98795 206.87958 211.89076 217.38016 222.27179 226.0775 229.40502 232.19455 236.1796 243.84084 246.63037 255.05873 261.42485 266.63529 269.4248 272.23426 279.89549 288.29396 293.18559 296.5131 302.132 307.50184 313.1307 318.50056 321.31 326.67985 331.8903 334.6798 339.57145 343.5565">Python-basedproject,utilizingexpertiseinAgilemethodologies.</tspan></text>
<text xml:space="preserve" transform="matrix(1 0 -0 1 0 841.89)" font-size="8.9664" font-family="LMMathSymbols9" font-style="italic"><tspan y="-378.435" x="57.066999">&#x2022;</tspan></text>
<text xml:space="preserve" transform="matrix(1 0 -0 1 0 841.89)" font-size="9.9626" font-family="CharterBT"><tspan y="-377.961" x="66.656 73.56008 78.45172 82.43676 85.22629 90.43673 96.09549 100.98713 109.3856 117.20624 122.865 127.75664 138.20742 142.19246 147.12395 151.109 154.43651 159.32814 170.49622 173.82373 181.96318 190.36165 195.41269 201.07144 206.12248 211.33292 218.99416 221.78369 227.44245 230.76996 235.66159 239.4673 244.51834 248.96166 252.28917 255.0787 260.44856 266.1073 270.09236 275.63154 280.52317 286.18193 291.23295 296.60279 299.41224 302.20176 307.8605 315.84056 319.8256 328.22407 333.5939 338.96376 342.29127 347.91017 352.8018 359.3771 363.82044 369.19029 371.99974 374.80918 379.8602 385.23005 390.59989 394.4056 399.45664 402.78416 405.57368 410.9435 419.37187 424.42289 430.08164 438.4801 444.10899 449.16 452.48753 460.30815 464.29319 469.22468 474.88343 479.32676 484.94566 488.75138 494.12123 499.77998 502.5695 507.232 512.283 515.61056 518.4001 523.7699">Designedanewsystemtomanageinteractions,enablingsmoothercollaborationanddatasynchronization</tspan><tspan y="-366.006" x="66.656 72.324718 76.30975 79.09928 84.75804 92.73808 98.29721 103.2287 106.556209 112.17511 117.54495 125.97331 131.4627 135.26842 140.63826 145.8487 149.6544 154.70545 163.10391 171.50238 174.2919 179.95066 187.9307 190.74015 195.79119 201.44994 206.66037 212.32909 217.38013 222.59056 227.4822 233.02141 236.82712 241.71875 245.7038 251.37252 254.18196 257.50947 260.29899 265.95774 273.93778 276.7273 285.15565 287.94517 296.34364 301.833 305.63874 311.00859 315.9301 320.82176 329.2202 334.11186 337.30986 340.1691 343.02839 347.4717 350.26124 355.15287 360.8116 365.25495 372.95603 378.00706 383.6658 392.06428 397.69316 402.74418 406.0717 413.8923 416.68183 422.34059 425.6681 430.55973 435.77018 439.5759 442.36543 445.69294 449.28944">usingPythonprogramminglanguage,resultinginimprovedefficiencyanddataintegrity.</tspan></text>
<text xml:space="preserve" transform="matrix(1 0 -0 1 0 841.89)" font-size="8.9664" font-family="LMMathSymbols9" font-style="italic"><tspan y="-351.69" x="57.066999">&#x2022;</tspan></text>
<text xml:space="preserve" transform="matrix(1 0 -0 1 0 841.89)" font-size="9.9626" font-family="CharterBT"><tspan y="-351.216" x="66.656 71.86643 75.67214 80.72318 86.38194 90.36698 93.15651 96.48402 99.273548 104.64339 110.30215 115.19379 123.592258 131.4129 134.22235 139.11399 144.32442 149.37546 153.81877 161.51987 167.079 172.01049 175.338 180.95691 186.32675 194.75511 200.2445 204.05022 209.42006 212.07012 216.96175 221.40506 227.50218 233.1709 237.15595 239.94547 245.60422 253.58426 256.91178 260.7175 263.50703 268.39866 276.79713 281.84815 287.5069 295.90538 299.23289 304.1245 308.10957 311.43708 316.3287 324.72718 329.7782 334.98866 337.77818 340.58763 348.24885 356.6473 361.53895 364.86647 370.48536 375.8552 381.48408 386.8539 389.66337 395.0332 400.24366 403.03318 407.9248 411.90986 417.44905 422.34068 427.99943 431.98448 437.6532 441.45893 444.24845 449.9072 457.88725 462.77888 465.97688 468.83613 471.6954 476.13874 478.92826 483.8199 489.47865 495.57575 500.46739 505.47859 510.3702 514.81356 520.48226 523.80978 526.5993 531.9691">TransitionedalegacyPythonprojectusingtriedandtestedagilemethodologies,ensuringefficientexecution</tspan><tspan y="-339.26" x="66.656 71.70704 77.3658 85.76427 89.749309 93.07681 98.12785 103.27852 108.17016 113.78906 119.158908 121.96836 127.59723 132.48886 139.06418 143.04923 148.10027 151.42778 154.21732 158.20236 161.40036 166.4514 170.89472 174.22223 177.01175 182.38159 188.04035 193.57956 201.26073 206.87964 209.66916 212.4786 220.13985 225.76873 230.66036 239.05883 244.42867 250.08742 254.07247 257.39997 261.2057 266.2567 269.58424 272.37376 278.0325 286.01255 290.90419 295.91539 301.40476 306.2964 310.1021 313.42964 316.21916 320.2042 327.86543 330.65495 339.08329 344.1343 349.76319 354.8142 360.3036 363.6311 366.42063 372.07939 380.05943 383.38694 391.52638 394.33583 399.22746 404.4379 409.48893 413.93226 421.63334 426.07667 431.4465 437.07539 441.967">andstakeholdersatisfaction,whiledemonstratingexpertiseinadaptingtolegacycode.</tspan></text>
</svg>
