<svg xmlns="http://www.w3.org/2000/svg" xmlns:xlink="http://www.w3.org/1999/xlink" version="1.1" width="595.276" height="841.89" viewBox="0 0 595.276 841.89">
<text xml:space="preserve" transform="matrix(1 0 -0 1 0 841.89)" font-size="23.9103" font-family="LMRoman12" font-weight="bold"><tspan y="-768.371" x="240.996 254.8879 268.3494 283.29335 307.20365 327.81434 342.01704">JohnDoe</tspan></text>
<text xml:space="preserve" transform="matrix(1 0 -0 1 0 841.89)" font-size="7.9701" font-family="FontAwesome5Free"><tspan y="-741.93399" x="120.634">&#xfffd;</tspan></text>
<text xml:space="preserve" transform="matrix(1 0 -0 1 0 841.89)" font-size="9.9626" font-family="LMRoman10"><tspan y="-741.93399" x="130.296 137.489 143.0282 145.7978 150.23117 155.21247 160.19376 165.17505 171.2622 174.8587">Chicago,IL</tspan></text>
<text xml:space="preserve" transform="matrix(1 0 -0 1 0 841.89)" font-size="7.9701" font-family="FontAwesome5Free"><tspan y="-741.93399" x="195.251">&#xfffd;</tspan></text>
<text xml:space="preserve" transform="matrix(1 0 -0 1 0 841.89)" font-size="9.9626" font-family="LMRoman10"><tspan y="-741.93399" x="206.906 209.95456 214.93585 220.47505 226.01425 228.78386 234.32306 239.5833 244.01667 251.76757 256.74888 265.04774 270.02903 272.7986 275.5682 278.32786 282.7612 287.7425">john.doe@gmail.com</tspan></text>
<text xml:space="preserve" transform="matrix(1 0 -0 1 0 841.89)" font-size="7.9701" font-family="FontAwesome5Free"><tspan y="-741.93399" x="310.189">&#xfffd;</tspan></text>
<text xml:space="preserve" transform="matrix(1 0 -0 1 0 841.89)" font-size="9.9626" font-family="LMRoman10"><tspan y="-741.93399" x="321.844 329.5949 337.89375 342.87504 347.85633 356.16514 361.14643 366.12773 374.42655 379.40785 384.38914 389.37043">+13123584237</tspan></text>
<text xml:space="preserve" transform="matrix(1 0 -0 1 0 841.89)" font-size="7.9701" font-family="FontAwesome5Brands"><tspan y="-741.93399" x="408.524">&#xfffd;</tspan></text>
<text xml:space="preserve" transform="matrix(1 0 -0 1 0 841.89)" font-size="9.9626" font-family="LMRoman10"><tspan y="-741.93399" x="419.18299 424.44325 429.42454 433.32987 437.20533 442.74455 445.51414 450.77439 456.3136 461.2949 465.23014 470.76936">karthikhosur</tspan></text>
<text xml:space="preserve" transform="matrix(1 0 -0 1 0 841.89)" font-size="11.9552" font-family="LMRoman12" font-weight="bold"><tspan y="-719.483" x="55.69699 64.51993 71.621318 79.46393 85.59695 91.09634 94.83832 100.97134 108.44334 114.42094">Experience</tspan></text>
<path transform="matrix(1,0,0,-1,55.697,127.78699)" stroke-width=".398" stroke-linecap="butt" stroke-miterlimit="10" stroke-linejoin="miter" fill="none" stroke="#000000" d="M0 0H482.886"/>
<text xml:space="preserve" transform="matrix(1 0 -0 1 0 841.89)" font-size="9.9626" font-family="LMRoman10" font-weight="bold"><tspan y="-701.403" x="62.363 68.7291 74.457599 77.95447 82.08895 90.04907 95.618167 100.34044 109.4064 116.938129 123.30423 129.03273 132.22077 138.58687 143.83716 149.08745">SoftwareEngineer</tspan></text>
<text xml:space="preserve" transform="matrix(1 0 -0 1 0 841.89)" font-size="9.9626" font-family="LMRoman10" font-style="italic"><tspan y="-689.447" x="62.363 67.96198 71.0205 75.603298 81.20228 84.260799 87.31931 95.727748 103.12996 107.194698 112.28558 114.836009 118.14359">SignifyHealth</tspan><tspan y="-701.37106" x="498.536 505.66923 510.7601 513.8186 517.8933 522.9842 527.567">Chicago</tspan><tspan y="-689.416" x="435.561 440.79139 446.1413 448.6917 457.10017 462.19105 467.28193 472.3728 481.0303 489.67784 494.9082 500.25813 502.80854 511.21699 516.30789 521.39877 526.4896">July2024&#x2013;July2024</tspan></text>
<text xml:space="preserve" transform="matrix(1 0 -0 1 0 841.89)" font-size="9.9626" font-family="LMMathSymbols10" font-style="italic"><tspan y="-677.62606" x="73.70102">&#x25e6;</tspan></text>
<text xml:space="preserve" transform="matrix(1 0 -0 1 0 841.89)" font-size="9.9626" font-family="LMRoman10"><tspan y="-677.62606" x="83.66402 91.275447 95.7088 99.64403 102.41363 107.39493 112.934139 117.36749 125.52686 130.50817 136.04737 144.21669 149.75589 154.18924 159.17055 163.60391 166.37352 171.35482 177.17296 181.60633 189.76569 197.78559 203.32479 206.09439 209.96985 212.73946 218.27866 221.04827 228.11176 235.72318 238.77173 243.75302 249.29222 254.27352 261.875 266.8563 272.3955 277.93473 280.7043 283.4739 287.90727 292.88856 296.764 299.5336 304.5149 310.0541 316.60954 323.80253 326.5721 330.44758 338.6169 346.22834 349.2769 354.52717 358.9605 364.49974 371.0651 376.0464 384.20579 388.14103 392.57438 397.55567 400.32527 405.30656 410.84577 413.61537 416.38496 419.15455 422.75105 427.1844 432.71363 437.14698 439.91328 442.67958 445.44584 449.87919 452.64878 457.08213 462.62135 467.0547 471.48805 477.01728 481.99858 487.53779 495.70713 499.64237 503.51783 508.4991 514.0383 516.8079 519.5775 522.3471 525.9436 530.37698">DesignedanddevelopedmultipleDjangoapplicationswithafocusonscalability,efficiency,andstability,</tspan><tspan y="-665.671" x="83.66402 87.56936 92.002719 95.93794 101.47715 104.24675 108.1222 110.8918 116.43101 124.72985 127.49945 136.3562 144.66501 149.6463 154.6276 166.24399 169.0136 174.5528 178.98615 182.89148 187.32483 192.30612 196.24135 203.99227 206.76187 215.61862 221.15782 225.09305 229.5264 236.74929 241.18265 246.72185 251.70314 256.68446 261.66575 266.0991 274.39796 278.8313 284.09156 291.29454 296.27583 301.81504 310.67179 318.9706 323.9519 328.9332 340.55958 346.0988 350.53215 354.96549 358.87083 363.29423 368.2755 372.21076 379.97163 382.7412 391.59797 397.13719 402.6764 407.65769">resultingina30%increaseinuserengagementanda25%decreaseinbugs</tspan></text>
<text xml:space="preserve" transform="matrix(1 0 -0 1 0 841.89)" font-size="9.9626" font-family="LMMathSymbols10" font-style="italic"><tspan y="-650.88107" x="73.70102">&#x25e6;</tspan></text>
<text xml:space="preserve" transform="matrix(1 0 -0 1 0 841.89)" font-size="9.9626" font-family="LMRoman10"><tspan y="-650.88107" x="83.66402 90.85702 95.83832 98.60792 101.37752 106.35882 112.17698 117.15828 121.06362 126.04492 129.92038 134.35373 143.71857 150.91156 153.68117 157.55663 166.92147 171.35483 175.26016 180.24146 184.17668 188.11191 191.42946 194.47801 200.01721 205.55641 209.98978 213.86524 216.62488 221.60617 227.14537 232.12667 238.73188 242.60733 247.04068 252.02198 260.32084 268.08174 271.95719 280.76414 286.30335 290.7367 293.5063 296.27589 301.25718 305.69053 313.4215 318.96073 321.73033 326.7116 332.25083 335.56837 340.8286 346.36784 351.34913 354.1187 356.8883 360.4848 369.5707 373.50596 378.48725 381.5358 385.1323 392.0563 397.0376 400.94294 409.20195 413.13719 418.11848 420.88807 426.42729 430.30274 433.07234 438.05363 443.59284 447.52809 454.24287 457.01246 462.55168 466.98503 469.7546 475.29383 480.83305 483.60264 489.14186 497.9488 503.488 508.4693 512.6237 517.615 522.04837 527.5875">Collaboratedwithcross-functionalteamstodeliverhigh-qualitysoftwaresolutions,includingbackend</tspan><tspan y="-638.926" x="83.66402 91.13597 97.9205 104.83454 110.37375 114.807109 119.78841 124.22176 126.99136 131.97266 137.51186 145.8107 150.24405 155.5043 159.37976 165.47689 171.01609 175.99738 179.87284 188.17168 196.47052 201.73076 207.26996 211.70331 214.47292 217.24253 222.78173 227.76302 233.85018 238.83147 244.37067 253.22742 257.10289 261.53623 265.47148 269.34693 272.11653 277.65574 282.63703 288.72416 295.91716 298.68675 302.5622 311.42893 319.72776 324.70906 329.69035 341.30674 345.24198 350.22328 354.09873 356.86833 360.80357 363.8521 368.8334 373.26676 377.1422 379.9118 384.8931 393.74986 397.65519 402.63648 406.51194 414.2728 417.3114 421.21675 426.19804 437.8244 441.75965 445.6351 450.6164 455.5977 460.03105 465.57026 470.55155 473.32115 478.86036 483.2937 487.19905">APIdevelopment,datamodeling,andtesting,witha95%satisfactionratefromstakeholders</tspan></text>
<text xml:space="preserve" transform="matrix(1 0 -0 1 0 841.89)" font-size="9.9626" font-family="LMMathSymbols10" font-style="italic"><tspan y="-624.13607" x="73.70102">&#x25e6;</tspan></text>
<text xml:space="preserve" transform="matrix(1 0 -0 1 0 841.89)" font-size="9.9626" font-family="LMRoman10"><tspan y="-624.13607" x="83.66402 87.26051 95.55936 101.098567 105.00391 109.70625 114.68755 119.12091 128.94403 133.92533 139.46453 145.00373 147.77333 150.54294 154.97629 159.95758 163.83304 166.60265 171.58394 181.40706 187.2252 191.65857 195.5639 198.61246 203.59375 207.49909 215.79793 220.77922 226.31842 230.75177 239.46904 244.7293 254.27347 259.25477 264.23606 276.81883 280.69429 286.2335 290.13883 295.12013 300.65934 305.64064 315.46376 320.44505 325.98426 329.8597 332.6293 340.92817 343.69776 348.1311 353.1124 356.98786 359.75746 364.73875 374.56187 379.54316 386.8756 392.41484 397.39613 401.27159 406.25288 411.78215 416.76344 420.69868 429.41593 434.67619 440.2154 444.64875 448.55409 451.32368 455.75703 459.69227 466.98487 475.28373 479.71708 488.01594 492.99723 496.90257 506.44673 511.98594 515.92117 520.90249 525.8838 530.31716">Improvedapplicationperformanceby40%throughoptimizationofdatabasequeries,memoryusage,</tspan><tspan y="-612.181" x="83.66402 88.64532 94.184528 103.041278 106.9765 111.40986 115.3152 120.2965 124.72986 131.9627 136.39606 141.37735 146.90659 149.6762 152.44579 157.42708 162.96628 166.87162 171.8529 175.72837 178.49797 183.47927 189.01847 195.11559 200.09688 204.2513 209.7905 212.5601 216.99347 222.25373 225.02333 230.56253 238.86138 243.29474 248.555 252.98834 257.4217 262.9609 266.83638 269.60597 274.58726 280.12648 285.10777 291.1949 296.7341 300.66935 305.1027 312.32557 316.7589 322.01918 327.83735 332.2707 336.17604 338.94563 343.37898 348.91819 353.35154 361.10243 366.0837 371.62294 380.47969 388.77854 393.21189 397.64524 401.5207 404.29029 409.8295 418.12834 423.66755 429.20677 433.142 435.9116 441.4508 445.88417 449.8194 457.07218 460.9775 465.41087 470.6711 476.21034 478.97993 482.88526 487.3186 495.61747 500.0508 505.31108 509.18653">andserverconfiguration,achievingexceptionaluserexperienceandmeetingbusinessrequirements</tspan></text>
<text xml:space="preserve" transform="matrix(1 0 -0 1 0 841.89)" font-size="11.9552" font-family="LMRoman12" font-weight="bold"><tspan y="-589.729" x="55.697019 63.169019 70.27041 74.01239 77.75437 81.49635">Skills</tspan></text>
<path transform="matrix(1,0,0,-1,55.697,257.54103)" stroke-width=".398" stroke-linecap="butt" stroke-miterlimit="10" stroke-linejoin="miter" fill="none" stroke="#000000" d="M0 0H482.886"/>
<text xml:space="preserve" transform="matrix(1 0 -0 1 0 841.89)" font-size="9.9626" font-family="LMRoman10"><tspan y="-571.618" x="62.363 67.90221 73.441417 77.316867 83.16491 90.77634 96.02663 100.190998 105.172298 109.60565 113.510997 119.349079 126.133609 128.90322 133.8845 137.81974 141.69519 144.4648 148.89817 152.83339 157.26676 162.24805 166.15338 170.30779 175.84699 181.69504 189.44594 194.42723 197.47579 202.73604 207.71733 213.56539 221.31629 226.84552 232.66367 237.09702 241.00235 246.54155 250.97492 254.85037 259.28373 263.21897 269.067 274.6062 281.52024 286.50154 291.48283 296.4641 300.89747 304.8028 310.64088 317.15644 322.13774 326.07298 329.94844 338.24729 343.22859 348.75785 354.60588 359.72666 364.429 369.1413 374.1226 379.9706 387.1636 394.91453 402.66545 408.5035 415.6965 423.44743 431.19834 437.04637 443.8309 449.09117 452.9666 457.39997 461.3053 466.8445 470.74986 473.51945 477.45469 484.89674 490.01753 494.72984 499.4322 504.41349 511.467 515.9004 520.8817 526.4209 530.35617">dbt,Docker,Elasticsearch,Kafka,Kubernetes,Swagger,Postman,Java,C++,C++,EnterpriseJavaBeans,</tspan><tspan y="-559.662" x="62.363 67.48377 72.18612 76.89843 81.87973 87.96687 93.08765 97.78999 102.502307 107.483608 111.41883 115.85219 119.74757 122.517169 128.05637 131.93183 138.02895 144.81348 150.07373 153.94919 159.48839 164.46968 170.00888 176.09604 181.63524 187.17444 191.87679 199.06978 201.83939 204.60898 209.59027 214.57158 219.00495 225.0921 230.21288 234.92517 239.62752 244.60881 250.69597 257.4805 262.74076 266.6162 272.15544 277.13673 282.67594 288.77305 295.96604 303.71696">Java,Javascript,Python,Snowflake,Java,Python,C++</tspan></text>
<text xml:space="preserve" transform="matrix(1 0 -0 1 0 841.89)" font-size="11.9552" font-family="LMRoman12" font-weight="bold"><tspan y="-537.211" x="55.697 65.41658 71.5496 77.04899 82.28537 86.02735 89.76335 93.49935 99.47695 106.01645 111.25283 114.99481 121.72559 129.1976">Certifications</tspan></text>
<path transform="matrix(1,0,0,-1,55.697,310.05903)" stroke-width=".398" stroke-linecap="butt" stroke-miterlimit="10" stroke-linejoin="miter" fill="none" stroke="#000000" d="M0 0H482.886"/>
<text xml:space="preserve" transform="matrix(1 0 -0 1 0 841.89)" font-size="9.9626" font-family="LMRoman10" font-weight="bold"><tspan y="-519.131" x="62.363 71.15001 77.51611 85.78507 90.87596 96.12625 100.848529 105.30181 108.489849 111.6729 114.85595 119.94684 125.51593 129.96921 139.04514 146.67649 155.4635 163.61292 175.39867 180.48957 185.73986 190.46213 194.9154 198.10344 201.28649 204.46955 209.56043 215.12952 219.5828 222.77083 228.49933">Dbtcertificate-DBTcertification</tspan></text>
<text xml:space="preserve" transform="matrix(1 0 -0 1 0 841.89)" font-size="9.9626" font-family="LMRoman10" font-style="italic"><tspan y="-519.099" x="489.674 494.9044 500.2543 502.80473 511.21318 516.3041 521.39498 526.48587">July2024</tspan></text>
<text xml:space="preserve" transform="matrix(1 0 -0 1 0 841.89)" font-size="11.9552" font-family="LMRoman12" font-weight="bold"><tspan y="-496.648" x="55.69702 64.89057 70.38996 77.491359 81.60394 87.73696 93.71456 98.95094">Projects</tspan></text>
<path transform="matrix(1,0,0,-1,55.697,350.622)" stroke-width=".398" stroke-linecap="butt" stroke-miterlimit="10" stroke-linejoin="miter" fill="none" stroke="#000000" d="M0 0H482.886"/>
<text xml:space="preserve" transform="matrix(1 0 -0 1 0 841.89)" font-size="9.9626" font-family="LMRoman10" font-weight="bold"><tspan y="-478.568" x="62.363 71.15001 74.33804 78.86106 83.31435 88.03662 91.224658 97.59076 103.95686 108.41015 113.66044 123.84222 131.35402 137.08252 140.27056 143.45859 146.64662 153.01273 162.5569 171.2144 177.5805 183.94661 187.13465 190.32268 195.41358 200.98267 205.43595 208.62398 214.35248">DistributedPollingApplication</tspan></text>
<text xml:space="preserve" transform="matrix(1 0 -0 1 0 841.89)" font-size="9.9626" font-family="LMMathSymbols10" font-style="italic"><tspan y="-466.77799" x="73.701">&#x25e6;</tspan></text>
<text xml:space="preserve" transform="matrix(1 0 -0 1 0 841.89)" font-size="9.9626" font-family="LMRoman10"><tspan y="-466.77799" x="83.663997 91.27542 95.70878 100.69008 105.123439 107.893039 112.87434 118.6925 123.125858 132.0623 140.44084 144.8742 147.64382 152.6251 158.1643 163.7035 167.02106 172.56026 177.54155 181.47678 185.91013 191.44933 197.63611 201.57134 206.0047 210.986 213.7556 218.7369 224.2761 227.0457 234.87631 242.48773 245.25734 249.19257 253.06803 256.97337 259.74296 265.28218 270.82139 274.69685 279.1302 288.06666 294.57225 299.55354 302.32313 305.0927 307.8623 313.40153 321.78007 329.252 334.79124 340.33045 343.10005 345.86964 350.30299 355.28428 359.15974 361.92933 366.9106 375.84709 378.89564 383.32899 388.31028 392.18574 397.72496 401.63029 404.39988 409.9391 418.31764 422.22297 426.6563 431.6376 434.4072 437.72474 441.6002 444.36979 452.66865 460.49925 466.3174 471.2987 474.0683 476.82795 479.59754 485.13676 490.11805 496.31477 501.84403 507.10429 512.6435 517.6248 525.92367 528.69326">Developedacloud-based,scalableDistributedPollingApplicationfeaturingreal-timepolling,dynamic</tspan><tspan y="-454.823" x="83.663997 89.2032 94.1845 98.05995 106.358798 111.340099 116.8793 121.8606 124.6302 129.89046 133.76592 136.53553 140.96887 144.9041 150.99126 155.97255 161.51175 170.37847 174.31369 178.74704 183.17043 188.70963 192.61496 200.37583 205.91503 209.85025 214.2836 221.50649 226.48778 232.02698 235.90244 241.44164 245.875 251.13526 255.01071 257.7803 262.21366 267.19496 271.0704 273.84 278.8213 287.67805 290.44764 299.30439 307.6132 315.91206 318.68165 323.115 327.02033 332.00163 335.93687 340.36027 344.2656 349.52586 352.29545 356.7288 361.16215 368.4249 373.4062 377.31153 381.4659 387.00514 389.77473 393.65019 398.08354 402.51689 406.39234 411.93156 415.83689 420.26029">dataanalytics,andsecureuserauthenticationinamicroservicesarchitecture.</tspan></text>
<text xml:space="preserve" transform="matrix(1 0 -0 1 0 841.89)" font-size="9.9626" font-family="LMMathSymbols10" font-style="italic"><tspan y="-440.033" x="73.701">&#x25e6;</tspan></text>
<text xml:space="preserve" transform="matrix(1 0 -0 1 0 841.89)" font-size="9.9626" font-family="LMRoman10"><tspan y="-440.033" x="83.663997 90.448528 95.98773 99.92296 105.462169 109.36751 113.800868 123.673809 127.57915 132.56044 138.09964 143.63884 147.57407 155.78325 159.71848 164.15183 169.13312 171.90273 176.88402 182.42322 185.19283 187.96244 190.73204 194.32855 203.92253 208.90383 214.44303 224.32592 228.75928 231.52556 234.29184 237.05812 241.49149 244.2611 248.69446 254.2237 258.65705 268.261 273.24229 283.11524 287.54859 290.31819 295.29948 300.83869 306.3779 313.74028 320.93327 323.70286 327.5783 337.45127 342.99049 348.5297 354.75633 359.7376 366.9306 373.15724 383.03019 387.46354 393.00276 397.4361 401.34144 406.60169 412.1409 416.01637 418.78596 423.76725 433.6402 436.68876 441.67005 449.90913 453.84437 458.2777 462.71107 468.25028 472.1556 474.9252 478.5217 482.95506 490.3174 498.61628 503.59757 508.85783 511.6274 517.1666 526.4817 529.2513">Ensuredrobustscalabilityandefficiencyoncloud,withSSL/TLSencryptionforsecurity,makingit</tspan><tspan y="-428.077" x="83.663997 86.43359 91.9728 96.40616 101.38746 107.4746 110.523159 115.504459 122.72734 125.49694 130.47824 134.38358 139.36487 143.79822 147.11577 151.051 155.48435 160.46564 163.23525 167.66861 173.75577 179.29497 182.06458 187.04587 192.58507 195.90262 199.77808 203.68341 208.6647 211.43099 214.19727 216.96355 224.72443 228.65966 234.19886 238.10419 243.0855 247.51886 256.09666 261.07795 266.61717 275.4739 281.29209 286.27339 289.04298 291.81257 294.58216 300.12138 308.4202 312.35545 316.7888 321.22215 326.76136 331.74266 335.64799 338.41758 343.39888 347.3341">idealforlarge-scale,high-trafficsurveyandpollingscenarios.</tspan></text>
<text xml:space="preserve" transform="matrix(1 0 -0 1 0 841.89)" font-size="9.9626" font-family="LMRoman10" font-weight="bold"><tspan y="-413.453" x="62.36299 70.96072 76.211009 80.734027 87.10013 96.6443 101.89459 105.710269 113.22207 118.79116 123.513439 128.03646 133.28675">Resume-Parser</tspan></text>
<text xml:space="preserve" transform="matrix(1 0 -0 1 0 841.89)" font-size="9.9626" font-family="LMMathSymbols10" font-style="italic"><tspan y="-401.663" x="73.70099">&#x25e6;</tspan></text>
<text xml:space="preserve" transform="matrix(1 0 -0 1 0 841.89)" font-size="9.9626" font-family="LMRoman10"><tspan y="-401.663" x="83.66399 87.26048 95.559329 101.09853 103.86813 108.30149 116.600337 121.03369 126.293949 130.1694 134.60276 143.73845 149.27765 154.25894 158.1344 160.904 165.88532 173.91516 176.68477 181.94503 185.82048 190.25385 195.23514 199.14048 204.12177 207.99723 210.76683 215.74813 224.88382 227.93238 232.91367 240.40554 247.32953 251.76288 260.88865 265.86994 271.40916 280.54487 284.4502 288.88356 292.759 298.29823 302.20356 307.74278 310.51237 316.05158 324.62937 331.5434 335.97676 338.74635 341.51594 344.83348 348.7687 352.64418 356.5495 362.0887 366.52207 370.39753 375.93675 379.84208 384.27543 389.81465 396.2405 400.67387 405.65516 409.5904 414.85066 418.16819 422.04365 427.02494 430.34248 434.2478 438.68116 443.66246 452.79817 458.33738 463.59764 468.03099 473.5702 481.86906 486.3024 491.56266 495.4381 500.4194 504.29487 507.06446 512.0458 521.18148 524.23007 529.21139">Implementednativeintegrationforwebandreturningwell-structured,easy-to-readdocumentationfor</tspan><tspan y="-389.708" x="83.66399 91.96283 98.74736 104.007617 107.883068 113.42227 118.40357 123.94278 127.26032 132.79953 137.78083 141.71605 146.14942 155.00617 160.54537 164.4507 169.71094 172.75949 177.19284 181.62619 185.50165 191.5888 197.128 201.00347 203.77307 206.54268 209.31229 213.74564 216.51525 222.05445 230.35329 234.78665 240.0469 245.86505 250.2984 254.20374 258.0792 260.8488 264.78404 272.5349 275.3045 284.16127 291.6332 296.6145 299.3841 302.1537 309.91456 318.2134 322.64677 326.52223 332.06144 337.3117 342.85093 347.8322 350.6018 355.5831 360.5644 363.33399 367.76734 371.70259">aPython-basedproject,utilizingexpertiseinAgilemethodologies.</tspan></text>
<text xml:space="preserve" transform="matrix(1 0 -0 1 0 841.89)" font-size="9.9626" font-family="LMMathSymbols10" font-style="italic"><tspan y="-374.918" x="73.70099">&#x25e6;</tspan></text>
<text xml:space="preserve" transform="matrix(1 0 -0 1 0 841.89)" font-size="9.9626" font-family="LMRoman10"><tspan y="-374.918" x="83.66399 91.27541 95.70877 99.644 102.4136 107.3949 112.934108 117.36746 126.184368 134.44336 139.98256 144.41593 154.88661 158.82184 164.08209 168.01732 171.89278 176.32614 187.90268 191.77814 200.04709 208.34593 213.32723 218.86643 223.84772 228.82901 236.54006 239.30966 244.56992 248.44538 252.87873 256.78407 261.76536 266.1987 270.07417 272.84376 277.82505 283.36427 287.2995 293.35676 297.7901 303.3293 308.3106 313.84983 316.61943 319.389 324.92823 333.18724 337.12248 345.42134 350.68159 355.66288 359.53834 365.07756 369.50096 376.69395 381.1273 386.10859 388.87818 391.64778 396.62907 402.43727 407.41856 411.32389 416.30519 420.18064 422.95024 427.93153 436.74845 441.72975 447.26896 456.09584 461.63505 466.61634 470.4918 478.7508 482.68605 487.9463 493.4855 497.6399 503.1791 507.08445 512.06576 517.6049 520.3745 524.80789 529.7892">Designedanewsystemtomanageinteractions,enablingsmoothercollaborationanddatasynchroniza-</tspan><tspan y="-362.963" x="83.66399 87.53944 90.30904 95.29034 104.14709 109.686298 113.62152 116.39112 121.93033 130.22917 137.0137 142.27396 146.14942 151.68862 156.6699 165.53662 171.07582 174.98116 179.96245 184.94374 188.83911 193.8204 202.11925 210.41809 213.1877 218.7269 227.0357 229.80532 234.7866 240.3258 245.3071 250.8463 255.82759 260.8089 265.24226 271.32939 275.2347 279.66807 283.6033 289.14253 291.9121 295.78758 298.55717 304.09638 312.3952 315.1648 324.02156 326.79115 335.09 340.6292 344.53456 349.23689 354.22816 358.6615 367.51826 371.9516 374.7179 377.4842 380.25047 384.6838 387.4534 391.88676 397.42597 401.8593 410.4371 415.4184 420.9576 429.81437 435.35359 440.33488 444.21034 452.50917 455.27876 460.54899 464.42445 468.8578 473.83909 477.74443 480.50407 484.11054 488.53395">tionusingPythonprogramminglanguage,resultinginimprovedefficiencyanddataintegrity.</tspan></text>
<text xml:space="preserve" transform="matrix(1 0 -0 1 0 841.89)" font-size="9.9626" font-family="LMMathSymbols10" font-style="italic"><tspan y="-348.173" x="73.70099">&#x25e6;</tspan></text>
<text xml:space="preserve" transform="matrix(1 0 -0 1 0 841.89)" font-size="9.9626" font-family="LMRoman10"><tspan y="-348.173" x="83.66399 90.03009 93.93543 98.91673 104.45594 108.39117 111.1508 115.02625 117.79585 122.77715 128.31636 132.74973 141.59651 149.89536 152.66497 157.09833 162.07962 167.06092 171.49427 180.0621 186.84664 192.10689 195.98235 201.52155 206.50284 215.34963 220.88883 224.79416 230.04445 233.093 237.52637 241.95972 249.14276 254.68196 258.6172 261.38679 266.926 275.21488 279.09034 282.99568 285.76527 290.1986 299.0454 304.0267 309.56593 318.42268 322.29814 326.73149 330.65678 334.53224 338.96559 347.82234 352.80363 357.7849 360.5545 363.31416 371.06504 379.3639 383.79725 387.6727 393.2119 398.4622 404.0014 408.9827 411.7523 416.73359 421.71488 424.48448 428.91783 432.85307 438.93025 443.3636 448.9028 452.83805 458.37727 462.2826 465.0522 470.5914 478.88029 483.31364 486.07994 488.84623 491.6125 496.04585 498.81544 503.24879 508.50904 515.702 520.1254 525.3857 529.81906">TransitionedalegacyPythonprojectusingtriedandtestedagilemethodologies,ensuringefficientexe-</tspan><tspan y="-336.21803" x="83.66399 88.09734 93.63655 97.512 100.2816 105.2629 114.11965 119.10095 124.64016 133.49692 137.43215 141.3076 146.2889 151.28015 155.7135 161.24274 166.22403 168.99364 174.53284 178.96619 186.19904 190.13426 195.11556 198.99102 201.76062 205.69585 208.73444 213.71573 218.14908 222.02454 224.79415 229.77544 235.31464 241.41176 248.60475 254.14395 256.91355 259.68315 267.43403 272.97325 277.4066 285.70545 290.68675 296.22596 300.1612 304.03666 307.942 312.92329 316.79875 319.56834 325.10755 333.40638 337.83973 343.09999 348.91816 353.3515 357.25685 361.1323 363.9019 367.82719 375.58805 378.35765 387.2144 392.19569 397.7349 402.7162 408.2554 412.13087 414.90046 420.43968 428.7385 432.61396 440.92277 443.6824 448.11576 453.09706 458.07835 462.5117 471.09947 475.5328 480.78309 486.3223 490.75566">cutionandstakeholdersatisfaction,whiledemonstratingexpertiseinadaptingtolegacycode.</tspan></text>
</svg>
