<svg xmlns="http://www.w3.org/2000/svg" xmlns:xlink="http://www.w3.org/1999/xlink" version="1.1" width="595.276" height="841.89" viewBox="0 0 595.276 841.89">
<text xml:space="preserve" transform="matrix(1 0 -0 1 0 841.89)" font-size="17.2154" font-family="NimbusSanL" font-weight="bold"><tspan y="-793.564" x="258.421 267.99278 278.51139 289.03 304.3345 316.76405 327.28266">JohnDoe</tspan></text>
<text xml:space="preserve" transform="matrix(1 0 -0 1 0 841.89)" font-size="9.9626" font-family="NimbusSanL"><tspan y="-775.939" x="182.62299 188.44115 196.74996 200.0675 205.6067 211.1459 216.6851 222.77227 228.31147 233.85066 239.38986 242.70742 248.24662 253.78582 259.325">+1(312)358-4237</tspan></text>
<text xml:space="preserve" transform="matrix(1 0 -0 1 0 841.89)" font-size="9.9626" font-family="CMSY10" font-style="italic"><tspan y="-775.939" x="267.633">&#x00b7;</tspan></text>
<text xml:space="preserve" transform="matrix(1 0 -0 1 0 841.89)" font-size="9.9626" font-family="NimbusSanL"><tspan y="-775.939" x="273.16999 275.38169 280.9209 286.4601 291.99934 294.76893 300.30815 305.84736 311.38658 321.4986 327.0378 335.33668 340.8759 343.0876 345.2993 348.06889 353.05018 358.5894">john.doe@gmail.com</tspan></text>
<text xml:space="preserve" transform="matrix(1 0 -0 1 0 841.89)" font-size="9.9626" font-family="CMSY10" font-style="italic"><tspan y="-775.939" x="369.65699">&#x00b7;</tspan></text>
<text xml:space="preserve" transform="matrix(1 0 -0 1 0 841.89)" font-size="9.9626" font-family="NimbusSanL"><tspan y="-775.939" x="375.19398 380.7332 382.9449 388.4841 393.26615 398.80537 404.34458 407.11418">LinkedIn</tspan></text>
<text xml:space="preserve" transform="matrix(1 0 -0 1 0 841.89)" font-size="11.9552" font-family="NimbusSanL" font-weight="bold"><tspan y="-724.60708" x="35.99997 46.568368 53.872995 58.523569 68.49421 76.46833 83.115428 90.42005 97.06715 101.71772 105.04127 111.68836 118.99299 125.64008">WorkExperience</tspan></text>
<path transform="matrix(1,0,0,-1,36,121.666019)" stroke-width=".398" stroke-linecap="butt" stroke-miterlimit="10" stroke-linejoin="miter" fill="none" stroke="#000000" d="M0 0H523.276"/>
<text xml:space="preserve" transform="matrix(1 0 -0 1 0 841.89)" font-size="9.9626" font-family="NimbusSanL" font-weight="bold"><tspan y="-702.776" x="36 42.645055 48.7322 52.049749 55.367296 63.1182 68.6574 72.53285 80.84166 87.48672 93.57387 99.66102 102.43062 108.51777 114.05698 119.59618">SoftwareEngineer</tspan></text>
<text xml:space="preserve" transform="matrix(1 0 -0 1 0 841.89)" font-size="9.9626" font-family="NimbusSanL" font-style="italic"><tspan y="-690.821" x="36 42.645055 44.85675 50.395959 55.935167 58.146863 60.916467 68.667369 75.86037 81.399578 86.93878 89.15048 91.92008 475.307 480.08906 485.62828 490.60957 496.14878 501.688 507.2272 515.536 521.62319 526.4052 531.9444 536.92568 542.46487 548.004 553.5432">SignifyHealthJul2024-Jul2024</tspan></text>
<text xml:space="preserve" transform="matrix(1 0 -0 1 0 841.89)" font-size="9.9626" font-family="NimbusSanL"><tspan y="-678.86599" x="36">&#x2022;</tspan></text>
<text xml:space="preserve" transform="matrix(1 0 -0 1 0 841.89)" font-size="9.9626" font-family="NimbusSanL"><tspan y="-678.86599" x="44.468214 51.66121 57.200418 62.181718 64.39342 69.932628 75.47183 81.01104 89.28 94.81921 100.35841 108.62737 114.16658 119.406909 124.139148 129.67835 131.89005 137.42925 142.96845 148.50765 156.76663 164.96585 170.50505 172.71675 175.48636 177.69806 183.23726 185.44896 193.71791 200.9109 203.1226 208.6618 214.201 219.7402 228.00916 233.54836 239.08756 244.62676 246.83846 249.05016 254.03145 259.57066 262.34025 264.55195 270.09117 275.63038 283.34144 290.53443 292.74613 295.51573 303.77473 312.0437 314.5144 320.05363 325.0349 330.57414 338.2852 343.8244 352.09339 357.07469 362.05598 367.59519 369.8069 375.3461 380.8853 383.09703 385.30873 387.52043 390.29 394.27507 399.7744 405.31364 408.08323 410.57389 413.0645 418.0458 420.2575 425.79673 431.33595 436.31724 440.30229 445.81159 451.3508 456.89 465.159 470.1403 472.90989 478.4491 483.9883 486.2 488.4117 490.6234 493.393 497.37806 502.8774 506.19496 511.73417 516.71548 522.25466 524.4663 527.2359 529.4476 534.98678 543.2557 545.46737 553.73629">DesignedanddevelopedmultipleDjangoapplicationswithafocusonscalability,efficiency,andstability,resultingina</tspan><tspan y="-666.91098" x="44.468004 50.00721 55.546419 67.17277 69.38447 74.923679 79.904979 83.22252 88.76173 94.300937 99.282238 107.59104 109.80274 118.11155 123.65076 128.63205 134.17125 140.2584 145.7976 151.3368 156.876 162.4152 167.9544 173.4936 181.79245 187.33165 192.87085 198.41007 203.94927 209.48847 217.79727 226.10608 231.64528 237.18448 248.81084 254.35004 259.88926 264.87055 268.18809 273.7273 279.2665 284.2478 292.5566 294.7683 303.07713 308.41709 313.9563 319.4955">30%increaseinuserengagementanda25%decreaseinbugs</tspan></text>
<text xml:space="preserve" transform="matrix(1 0 -0 1 0 841.89)" font-size="9.9626" font-family="NimbusSanL"><tspan y="-654.95596" x="36">&#x2022;</tspan></text>
<text xml:space="preserve" transform="matrix(1 0 -0 1 0 841.89)" font-size="9.9626" font-family="NimbusSanL"><tspan y="-654.95596" x="44.468214 51.66121 57.200418 59.412115 61.62381 67.16302 72.702228 78.24143 81.45935 86.99856 89.76816 95.307369 104.64233 111.83533 114.04703 116.81663 126.141628 131.12293 134.44048 139.97968 144.96097 149.94226 153.25981 156.02942 161.56862 167.10782 172.08911 174.85872 177.07042 182.60962 188.14882 193.68802 199.69547 202.46508 208.00428 213.54347 221.84232 230.61936 233.38896 242.71395 248.25315 253.79235 256.00404 258.21574 262.94798 268.48719 275.60047 281.13969 283.35139 288.8906 294.4298 297.74736 303.28657 308.82579 314.365 316.5767 318.7884 321.55799 330.33503 335.3163 340.85554 343.62513 346.3947 353.43827 358.97749 362.295 371.62998 376.61128 382.15049 384.36219 389.9014 392.671 394.8827 400.4219 405.96113 410.79298 417.6074 419.8191 425.3583 430.3396 432.5513 438.0905 443.62974 445.84144 451.38066 460.7156 466.25483 471.79405 476.57609 481.35813 486.89735 492.43656 501.76158 508.40663 515.0517 521.61709 527.15628 532.39657 537.1288 542.66799 544.87966 550.4188 555.958">Collaboratedwithcross-functionalteamstodeliverhigh-qualitysoftwaresolutions,includingbackendAPIdevelop-</tspan><tspan y="-643.0009" x="44.468004 52.76685 58.306058 63.845266 66.61487 72.15407 77.693279 83.23248 86.00208 94.31089 102.60973 108.14894 113.68815 119.227359 121.43906 123.65076 129.18996 134.72916 140.26837 145.80757 151.34677 159.65558 162.42519 167.96439 172.94568 175.71529 177.92699 183.46619 189.00539 194.5446 201.7376 203.9493 206.7189 215.02771 223.33652 228.87572 234.41492 246.04128 251.02257 256.56178 259.33137 261.54307 266.52436 268.99507 274.53428 279.51557 282.28517 284.49687 290.03608 298.34489 301.56278 307.102 309.87159 318.1804 320.94999 324.26753 329.80674 340.87519 345.85649 348.62608 354.16529 358.94734 364.48655 370.02577 375.56498 377.77668 383.3159 388.8551 392.17265">ment,datamodeling,andtesting,witha95%satisfactionratefromstakeholders</tspan></text>
<text xml:space="preserve" transform="matrix(1 0 -0 1 0 841.89)" font-size="9.9626" font-family="NimbusSanL"><tspan y="-631.0449" x="36">&#x2022;</tspan></text>
<text xml:space="preserve" transform="matrix(1 0 -0 1 0 841.89)" font-size="9.9626" font-family="NimbusSanL"><tspan y="-631.0449" x="44.468214 47.237817 55.536664 61.07587 64.39342 69.78319 74.51543 80.054637 89.98735 95.52656 101.065769 106.60497 108.81667 111.02837 116.009677 121.54888 124.31848 126.53018 132.06938 141.99213 147.53133 153.07053 156.38808 158.85881 164.39801 167.96463 176.26348 181.80268 187.34188 192.32317 202.25588 207.59583 216.97063 222.50983 228.04903 241.29929 244.0689 249.6081 252.92565 258.46485 264.00407 269.54328 279.46604 285.00526 290.54447 293.31407 295.52577 303.82463 306.03633 311.0176 316.55683 319.32643 321.53813 327.07734 337.01005 342.54927 349.71235 355.25157 360.79078 363.56037 369.09959 374.6388 380.178 385.1593 395.092 400.63124 406.17045 411.70967 415.17665 417.38835 422.92756 427.7594 435.321 443.61988 449.1591 457.45796 462.99717 466.6136 475.98838 481.5276 486.50889 492.0481 497.5873 502.97709 510.5387 516.0779 521.61709 531.54977 536.53109 542.07028 545.6867 550.41897 555.9581">Improvedapplicationperformanceby40%throughoptimizationofdatabasequeries,memoryusage,andserver</tspan><tspan y="-619.0899" x="44.468004 49.449304 54.98851 60.527719 63.018369 65.50902 71.048229 76.58743 79.80535 85.34456 88.11416 90.32586 95.86507 101.404277 106.943477 112.48268 117.46398 123.00319 125.21489 130.45522 135.43651 137.64821 143.18741 151.49622 156.73654 161.71784 166.69913 172.23833 177.77753 180.54714 182.75884 188.29804 193.83724 199.37644 204.35774 209.89694 214.87824 220.41744 226.5046 231.74492 236.72621 242.26541 247.80461 251.2716 253.4833 259.02253 264.56175 269.54304 277.85185 283.39106 288.93028 297.23908 305.53794 311.07716 316.61637 319.38597 321.59767 327.13688 335.44569 340.78565 346.32487 351.30616 353.51786 359.05708 364.59629 369.57759 377.32847 380.646 386.1852 391.72444 397.26365 399.47535 402.79289 408.3321 416.63096 422.17018 427.70939 430.47898">configuration,achievingexceptionaluserexperienceandmeetingbusinessrequirements</tspan></text>
<text xml:space="preserve" transform="matrix(1 0 -0 1 0 841.89)" font-size="11.9552" font-family="NimbusSanL" font-weight="bold"><tspan y="-590.1289" x="36 43.97412 50.621213 53.94476 57.268308 60.591856">Skills</tspan></text>
<path transform="matrix(1,0,0,-1,36,256.14405)" stroke-width=".398" stroke-linecap="butt" stroke-miterlimit="10" stroke-linejoin="miter" fill="none" stroke="#000000" d="M0 0H523.276"/>
<text xml:space="preserve" transform="matrix(1 0 -0 1 0 841.89)" font-size="9.9626" font-family="NimbusSanL"><tspan y="-568.338" x="36 41.539209 47.078416 49.84802 57.63877 64.83177 70.37098 75.15303 79.93508 85.47429 88.2937 96.08445 102.72951 104.94121 110.480419 115.461719 118.231319 120.443019 125.42432 130.40561 135.94481 141.48401 144.80156 149.78285 155.32205 163.11281 169.75786 175.29706 178.06667 183.04796 188.58716 196.37792 202.72409 208.26329 213.80249 219.34169 222.90831 228.44751 233.98671 236.75632 242.29552 247.12737 254.91812 261.56318 268.60673 274.14595 279.68516 285.22438 290.76359 293.58299 301.3837 307.5306 313.06983 318.05113 320.8207 329.11958 334.65879 340.198 347.98875 352.77079 358.11076 362.843 368.3822 376.17295 383.36595 389.18409 395.00224 402.79298 409.98597 415.8041 421.62226 429.413 436.05805 441.59727 444.36686 449.90608 453.5225 459.0617 462.5287 464.7404 469.72169 479.83375 484.61579 489.95576 494.688 500.2272 506.87226 512.41146 517.9506 523.4898 528.3217 536.1125 540.89456 546.23446 550.9667 556.50588">dbt,Docker,Elasticsearch,Kafka,Kubernetes,Swagger,Postman,Java,C++,C++,EnterpriseJavaBeans,Java,</tspan><tspan y="-556.383" x="36 40.782049 46.122 50.854238 56.393445 61.374746 66.35604 69.82302 72.03472 77.57393 80.34353 85.88273 92.52779 97.50909 100.27869 105.817897 111.3571 116.89631 122.43551 129.08057 134.61977 140.00952 147.20252 149.69316 152.1838 157.723 162.50505 167.8948 173.43402 178.21607 183.55602 188.28824 193.82744 199.36666 206.0117 210.993 213.7626 219.3018 224.841 230.3802 235.91942 243.11241 248.93058">Javascript,Python,Snowflake,Java,Python,C++</tspan></text>
<text xml:space="preserve" transform="matrix(1 0 -0 1 0 841.89)" font-size="11.9552" font-family="NimbusSanL" font-weight="bold"><tspan y="-527.422" x="36 44.631658 51.278749 56.168428 60.14951 63.473058 67.125377 70.77769 77.42478 84.07188 88.052959 91.3765 98.68113 105.985759">Certifications</tspan></text>
<path transform="matrix(1,0,0,-1,36,318.851)" stroke-width=".398" stroke-linecap="butt" stroke-miterlimit="10" stroke-linejoin="miter" fill="none" stroke="#000000" d="M0 0H523.276"/>
<text xml:space="preserve" transform="matrix(1 0 -0 1 0 841.89)" font-size="9.9626" font-family="NimbusSanL" font-weight="bold"><tspan y="-505.706" x="36 43.192998 49.280145 55.367296 60.9065 66.44571 70.52041 73.83795 76.60755 79.65112 82.6947 88.23391 93.77312 97.09066 520.153 525.4929 531.5801 537.11929 542.65847 548.19766 553.7368">DbtcertificateJul2024</tspan></text>
<text xml:space="preserve" transform="matrix(1 0 -0 1 0 841.89)" font-size="9.9626" font-family="NimbusSanL" font-style="italic"><tspan y="-493.751" x="36 43.192998 49.83805 58.694807 63.676107 69.21531 72.93136 75.70096 77.91266 80.403308 82.89396 87.87526 93.41447 96.18407 98.39577 103.934978">DBTcertification</tspan></text>
<text xml:space="preserve" transform="matrix(1 0 -0 1 0 841.89)" font-size="11.9552" font-family="NimbusSanL" font-weight="bold"><tspan y="-464.79" x="36 43.97412 48.38559 55.690217 59.013765 65.66086 72.30795 76.28903">Projects</tspan></text>
<path transform="matrix(1,0,0,-1,36,381.483)" stroke-width=".398" stroke-linecap="butt" stroke-miterlimit="10" stroke-linejoin="miter" fill="none" stroke="#000000" d="M0 0H523.276"/>
<text xml:space="preserve" transform="matrix(1 0 -0 1 0 841.89)" font-size="9.9626" font-family="NimbusSanL" font-weight="bold"><tspan y="-443.074" x="36 43.192998 45.9626 51.50181 54.819356 58.694807 61.46441 67.35231 73.43946 76.757 82.29621 91.15296 97.39951 103.486667 106.25626 109.02586 111.79546 117.882617 126.739368 133.93236 140.0195 146.10665 148.87625 151.64586 157.18506 162.72426 166.04181 168.81142 174.89856">DistributedPollingApplication</tspan></text>
<text xml:space="preserve" transform="matrix(1 0 -0 1 0 841.89)" font-size="9.9626" font-family="NimbusSanL" font-style="italic"><tspan y="-431.11903" x="36 43.192998 48.732206 54.27141 62.580224 68.667369 75.31242 78.62997 84.169178 89.150478 94.68968 100.22889">None-Present</tspan></text>
<text xml:space="preserve" transform="matrix(1 0 -0 1 0 841.89)" font-size="9.9626" font-family="NimbusSanL"><tspan y="-419.16304" x="36">&#x2022;</tspan></text>
<text xml:space="preserve" transform="matrix(1 0 -0 1 0 841.89)" font-size="9.9626" font-family="NimbusSanL"><tspan y="-419.16304" x="44.468214 51.66121 56.90154 61.633775 67.17298 69.38468 74.92389 80.4631 86.002307 94.56018 103.11806 108.09936 110.31106 115.850269 121.38947 126.92868 130.24623 135.78543 141.32463 146.30593 151.84513 157.38433 163.23238 168.21367 173.19496 178.73416 180.94586 186.48506 191.82501 194.03672 202.59458 209.78757 211.99927 216.98056 219.75017 223.21717 225.42887 230.76882 236.30802 239.07762 244.61682 253.17469 259.3216 264.8608 267.0725 269.2842 271.4959 277.03514 285.60298 292.24803 297.78724 303.3165 305.5282 307.7399 312.7212 318.2604 321.03 323.2417 328.7809 337.34877 339.81947 345.35868 350.8979 353.66749 359.2067 362.67369 364.88539 370.41465 378.98249 382.30003 387.83924 393.37846 395.59016 398.90769 401.67729 403.88899 412.18785 420.74574 426.28495 431.82417 434.03587 436.24757 438.45927 443.99848 449.5377 455.3857 460.92494 465.90623 471.44544 476.98466 485.2835 487.4952 495.49519 501.0344 506.5736 509.3432 517.90109 523.44027 528.97946 534.5186 536.7303 541.7116 544.4812 546.6929 551.6742 556.5061">Developedacloud-based,scalableDistributedPollingApplicationfeaturingreal-timepolling,dynamicdataanalytics,</tspan><tspan y="-407.20805" x="44.468004 50.00721 55.546419 64.781749 69.76305 75.30225 80.283557 85.82276 89.140308 98.36568 103.904888 108.886188 114.42539 121.43906 126.978267 132.51747 135.28708 140.82628 146.36548 151.90468 154.67429 156.88599 161.86728 167.40648 170.17609 172.38779 177.92699 187.15235 189.36405 198.59937 207.82472 216.12357 218.33527 223.31656 226.63411 232.17331 237.1546 242.6938 246.31023 251.29152 253.50322 258.48454 264.02375 272.70118 278.2404 281.55793 286.5392 292.07844 294.29014 297.05973 302.59895 307.58024 310.34983 315.88905 319.20658 324.59635 333.56269 340.20774 345.74696 350.72825 356.26747 359.585 365.1242 374.34959 377.6671 383.20634 388.5463 394.0855 399.0668 405.53254 410.51383 415.49513 421.03434 423.24604 428.78526 434.32447 436.53617 438.74787 440.95957 443.72917 452.3966 457.93583 463.47505 472.7104 478.2496 481.0192 483.50987 486.0005 490.98179 493.19349 498.7327 504.2719 509.2532 517.92068 523.45986 532.6951 537.67648 539.8881 545.4273 550.9665 556.5057">andsecureuserauthenticationinamicroservicesarchitecture.Ensuredrobustscalabilityandefficiencyoncloud,</tspan><tspan y="-395.25306" x="44.468004 51.661 53.872697 56.6423 64.95111 71.59617 78.24123 83.78043 86.55003 92.637187 98.17639 107.59105 113.13026 118.669467 123.650768 127.26719 132.24849 137.78769 140.5573 142.769 148.3082 156.617 159.08774 164.62694 170.7141 175.69539 181.23459 186.21588 191.75508 195.22208 197.43378 200.20339 204.18842 209.72763 218.02648 223.56568 228.54697 230.75867 236.29787 244.60668 246.81838 252.35759 254.56929 260.1085 265.6477 271.18693 276.1682 278.63893 284.17814 290.26527 292.47697 298.01618 301.3337 306.87294 312.41215 315.72969 320.71098 325.69227 331.23149 333.44319 338.83296 344.37214 349.91136 352.12306 357.66227 363.20149 366.519 369.2886 372.5065 378.04573 380.8153 383.30598 385.7966 393.5475 398.52879 404.068 407.68443 412.41667 417.75663 425.5075 431.04673 436.58595 444.89476 450.43397 455.97319 458.18489 460.39659 462.60829 468.1475 476.4563 481.4376 486.41889 491.9581 497.4973 503.03654 506.5035 508.7152 514.2544 519.0863">withSSL/TLSencryptionforsecurity,makingitidealforlarge-scale,high-trafficsurveyandpollingscenarios.</tspan></text>
<text xml:space="preserve" transform="matrix(1 0 -0 1 0 841.89)" font-size="9.9626" font-family="NimbusSanL" font-weight="bold"><tspan y="-383.29808" x="36 43.192998 48.732206 54.27141 60.35856 69.21531 74.75452 78.07206 84.418239 89.95744 93.68346 99.222667 104.76187">Resume-Parser</tspan></text>
<text xml:space="preserve" transform="matrix(1 0 -0 1 0 841.89)" font-size="9.9626" font-family="NimbusSanL" font-style="italic"><tspan y="-371.34309" x="36 43.192998 48.732206 54.27141 62.580224 68.667369 75.31242 78.62997 84.169178 89.150478 94.68968 100.22889">None-Present</tspan></text>
<text xml:space="preserve" transform="matrix(1 0 -0 1 0 841.89)" font-size="9.9626" font-family="NimbusSanL"><tspan y="-359.3881" x="36">&#x2022;</tspan></text>
<text xml:space="preserve" transform="matrix(1 0 -0 1 0 841.89)" font-size="9.9626" font-family="NimbusSanL"><tspan y="-359.3881" x="44.468214 47.237817 55.536664 61.07587 63.287569 68.826778 77.12562 82.664829 88.20403 90.97363 96.51284 104.69214 110.231349 115.77055 118.54015 120.751857 125.48409 133.66339 135.87509 141.41429 144.1839 149.7231 155.16268 158.3806 163.9198 166.6894 168.90111 174.4403 182.6196 185.09033 190.62953 196.58718 203.68054 209.21974 217.39904 222.93824 228.47743 236.65673 239.97428 245.51348 248.28308 253.82228 257.3889 262.9281 265.1398 270.67903 278.8583 285.95167 291.49089 293.70259 295.91429 299.2318 304.2131 306.9827 310.44969 315.9889 320.97019 323.73979 329.279 332.59654 338.13575 343.67497 349.11454 354.65376 360.19297 365.17427 370.15556 373.47309 376.24269 381.7819 385.09944 388.41697 393.95619 399.4954 407.67469 413.2139 418.7531 423.7344 429.27363 437.57249 443.1117 448.6509 451.4205 456.95973 459.7293 461.941 467.48023 475.65953 478.13023 483.66944 489.62705 497.80635 504.4514 509.43269 512.2023 517.74148 523.28067 528.8198 532.1374 537.6766 543.21578 548.1971 553.73629">Implementednativeintegrationforwebandreturningwell-structured,easy-to-readdocumentationforaPython-based</tspan><tspan y="-347.4321" x="44.468004 50.00721 53.324758 58.863965 61.07566 66.61487 71.59617 74.36577 79.90497 85.444179 88.213779 90.425479 92.63718 94.84888 99.83018 102.04188 107.581089 115.88989 121.13022 126.11152 131.65073 137.18993 140.90598 143.67559 145.88729 150.86858 159.17739 161.38909 169.69789 176.34294 181.88214 184.09384 186.30554 194.61435 202.9132 208.4524 211.222 216.7612 222.3004 227.8396 233.3788 235.5905 241.1297 246.6689 248.8806 254.4198 259.25166">project,utilizingexpertiseinAgilemethodologies.</tspan></text>
<text xml:space="preserve" transform="matrix(1 0 -0 1 0 841.89)" font-size="9.9626" font-family="NimbusSanL"><tspan y="-335.4771" x="36">&#x2022;</tspan></text>
<text xml:space="preserve" transform="matrix(1 0 -0 1 0 841.89)" font-size="9.9626" font-family="NimbusSanL"><tspan y="-335.4771" x="44.468214 51.66121 57.200418 62.181718 64.39342 69.932628 75.47183 81.01104 90.784358 100.55767 106.09688 111.43684 122.863948 127.845249 132.82654 137.80783 140.57744 146.11664 158.64958 161.41919 171.19249 179.49134 185.03054 190.56974 196.10894 201.64813 211.42144 213.63314 219.17234 221.94194 227.48114 230.69907 236.23827 241.21956 243.98917 246.20087 251.74007 257.27928 262.1111 269.48344 275.02265 280.56187 286.10108 291.44105 293.65275 295.86445 301.40367 311.17698 316.15827 324.45713 329.99635 335.53556 338.30516 343.84437 349.38359 356.9352 361.9165 367.45573 369.66743 371.87913 377.41835 382.95756 388.49678 391.71467 397.25389 400.02348 402.23518 407.77439 417.5477 423.0869 428.62614 438.39945 443.93867 449.47789 452.24748 462.02079 467.00209 471.98338 477.52259 482.50389 488.0431 491.36064 496.89985 502.43907 504.65077 509.63206 515.17129 517.94088 520.1525 525.6917 535.465 541.0042 545.98556 548.1972 553.7364">Designedanewsystemtomanageinteractions,enablingsmoothercollaborationanddatasynchronizationusing</tspan><tspan y="-323.52214" x="44.468004 51.113058 56.094358 58.86396 64.40317 69.942378 78.25118 83.79039 87.10793 92.64714 98.08672 101.30464 106.84385 115.14269 123.441539 125.65324 131.19245 139.50125 141.71295 147.25215 152.79135 158.33055 163.86975 169.40895 174.94815 180.3379 185.87712 189.19467 194.73387 199.71517 205.25437 207.46607 210.23567 212.44738 217.98657 226.29538 228.50708 236.81589 239.02759 247.32643 252.86563 256.18318 261.57295 266.30519 271.8444 280.1532 285.6924 288.462 290.95268 293.4433 298.4246 300.6363 306.1755 311.71473 316.696 324.4469 329.9861 335.52534 343.83415 349.37336 354.91258 357.68217 365.99098 368.20268 373.74189 376.51148 382.0507 387.49028 390.95726 393.16896 395.93855 399.92359">Pythonprogramminglanguage,resultinginimprovedefficiencyanddataintegrity.</tspan></text>
<text xml:space="preserve" transform="matrix(1 0 -0 1 0 841.89)" font-size="9.9626" font-family="NimbusSanL"><tspan y="-311.56715" x="36">&#x2022;</tspan></text>
<text xml:space="preserve" transform="matrix(1 0 -0 1 0 841.89)" font-size="9.9626" font-family="NimbusSanL"><tspan y="-311.56715" x="44.468214 49.359849 52.57777 58.116979 63.656187 68.63748 70.84918 73.61878 75.83048 81.36969 86.9089 92.448108 102.19153 111.92499 114.13669 119.675899 125.2151 130.7543 135.7356 144.92111 151.56616 156.54746 159.31707 164.85626 170.39546 180.12892 185.66812 188.98567 194.52487 196.73657 202.27577 207.25707 214.2309 219.7701 224.75139 226.96309 232.50229 242.23575 245.00536 248.47235 250.68405 256.22328 265.9667 271.50593 277.04515 286.78858 289.55818 295.09739 300.07868 302.84828 308.38749 318.12095 323.66017 329.19938 331.41108 333.62278 343.3662 351.66508 357.20429 359.97389 365.5131 371.0523 376.59153 382.13075 384.34245 389.88166 395.42088 397.63258 403.17179 408.00364 415.32615 420.86537 426.40458 431.38587 436.92509 440.39207 442.60377 448.14299 457.8864 463.42564 466.19523 468.68589 471.1765 476.1578 478.3695 483.90873 489.44795 496.41178 501.6521 506.3345 511.87373 516.85507 522.3942 525.1638 527.3755 532.9147 542.6581 548.19729 553.73648">TransitionedalegacyPythonprojectusingtriedandtestedagilemethodologies,ensuringefficientexecutionand</tspan><tspan y="-299.61216" x="44.468004 49.449304 52.218908 57.758115 62.54016 68.07937 73.618579 79.15778 81.369487 86.90869 92.4479 98.53504 103.51634 109.05555 111.82515 114.03685 119.01815 121.48887 127.028079 132.00937 134.77898 136.99068 142.52988 148.06908 153.60829 160.80129 166.34049 168.55219 170.76389 179.0727 184.6119 190.1511 198.44994 203.98914 209.52834 214.50963 217.27924 220.49716 226.03636 228.80597 231.01767 236.55687 244.86568 250.106 255.0873 260.6265 266.1657 269.88175 272.65135 274.86305 279.84434 288.15315 290.36485 298.67366 304.21287 309.75209 315.2913 320.8305 323.6001 325.8118 331.351 339.65983 342.4294 350.73823 352.94993 358.48915 364.02836 369.56758 374.54887 382.29975 387.28105 392.82026 398.35948 403.74925">stakeholdersatisfaction,whiledemonstratingexpertiseinadaptingtolegacycode.</tspan></text>
</svg>
