<svg xmlns="http://www.w3.org/2000/svg" xmlns:xlink="http://www.w3.org/1999/xlink" version="1.1" width="595.276" height="841.89" viewBox="0 0 595.276 841.89">
<text xml:space="preserve" transform="matrix(1 0 -0 1 0 841.89)" font-size="33.873" font-family="LMSans17"><tspan y="-716.84" x="73.645 88.650737 104.571048 120.965579 147.96236 170.92826 187.72927">JohnDoe</tspan></text>
<text fill="#737373" xml:space="preserve" transform="matrix(1 0 -0 1 0 841.89)" font-size="8.9664" font-family="LMSans9" font-style="italic"><tspan y="-750.03" x="473.979 479.86994 484.6311 486.82789 490.92555 495.35496 499.96369 504.57243 510.21229 512.78567">Chicago,IL</tspan></text>
<text fill="#737373" xml:space="preserve" transform="matrix(1 0 -0 1 0 841.89)" font-size="8.9664" font-family="FontAwesome5Free"><tspan y="-738.892" x="442.051">&#xfffd;</tspan></text>
<text fill="#737373" xml:space="preserve" transform="matrix(1 0 -0 1 0 841.89)" font-size="8.9664" font-family="LMSans9" font-style="italic"><tspan y="-738.892" x="450.72599 457.89015 465.57435 470.18309 474.7918 482.46705 487.07579 491.6845 499.3687 503.97746 508.58619 513.1949">+13123584237</tspan></text>
<text fill="#737373" xml:space="preserve" transform="matrix(1 0 -0 1 0 841.89)" font-size="8.9664" font-family="FontAwesome5Free"><tspan y="-727.93307" x="427.412">&#xfffd;</tspan></text>
<text fill="#737373" xml:space="preserve" transform="matrix(1 0 -0 1 0 841.89)" font-size="8.9664" font-family="LMSans9" font-style="italic"><tspan y="-727.93307" x="439.44999 441.90678 446.5155 451.27668 456.03785 458.60224 463.3634 468.23219 472.32984 478.47184 483.08058 490.39717 494.82658 497.02336 499.22013 501.78453 505.88218 510.4909">john.doe@gmail.com</tspan></text>
<text fill="#737373" xml:space="preserve" transform="matrix(1 0 -0 1 0 841.89)" font-size="8.9664" font-family="FontAwesome5Brands"><tspan y="-716.84" x="459.45298">&#xfffd;</tspan></text>
<text fill="#737373" xml:space="preserve" transform="matrix(1 0 -0 1 0 841.89)" font-size="8.9664" font-family="LMSans9" font-style="italic"><tspan y="-716.84" x="470.37098 474.8721 479.04148 482.1887 485.51524 490.28538 492.48216 496.98329 501.74446 506.35319 509.88597 514.6471">karthikhosur</tspan></text>
<path transform="matrix(1,0,0,-1,74.409,183.53205)" d="M0 0H107.717V4.206H0Z" fill="#3873b3"/>
<text fill="#3873b3" xml:space="preserve" transform="matrix(1 0 -0 1 0 841.89)" font-size="14.3462" font-family="LMSans12"><tspan y="-656.256" x="190.717 199.08083 205.50792 213.09706 219.33766 224.11495 227.41457 233.65517 240.85697 247.09757">Experience</tspan></text>
<text xml:space="preserve" transform="matrix(1 0 -0 1 0 841.89)" font-size="9.9626" font-family="LMSans10"><tspan y="-638.87698" x="90.35999 95.06234 100.213008 102.59406 110.504367 115.485668 120.466968 125.448268 133.75708 142.05593 146.75827 151.90894 154.29 162.2003 167.1816 172.16289 177.14418">July2024&#x2013;July2024</tspan></text>
<text xml:space="preserve" transform="matrix(1 0 -0 1 0 841.89)" font-size="9.9626" font-family="LMSans10" font-weight="bold"><tspan y="-638.87698" x="190.717 196.80414 199.35457 204.834 210.42302 212.97345 216.32088 224.95845 232.87873 237.9696 243.19997 245.7504 249.77529">SignifyHealth</tspan></text>
<text xml:space="preserve" transform="matrix(1 0 -0 1 0 841.89)" font-size="9.9626" font-family="LMSans10"><tspan y="-638.87698" x="255.349 261.43614 266.97535 271.95664 275.0052 278.32273 284.8582 289.37126 292.77845 300.52934 306.477 311.62767 316.60896 318.99003 324.1407 328.57405 333.0074 336.41459 342.5017 348.8678 354.01847 356.39955 360.8329 365.6249 370.6062">,SoftwareEngineer,Chicago</tspan></text>
<text fill="#3873b3" xml:space="preserve" transform="matrix(1 0 -0 1 0 841.89)" font-size="4.9813" font-family="FontAwesome5Free"><tspan y="-623.43496" x="190.717">&#x25cb;</tspan></text>
<text xml:space="preserve" transform="matrix(.98994949 0 -0 1.0101526 0 841.89)" font-size="9.862471" font-family="LMSans10"><tspan y="-617.1691" x="201.03955 208.16025 212.54906 216.32639 218.68352 223.61475 228.71364 233.10245 240.90367 245.6475 250.74642 258.53776 263.63667 268.02546 272.57209 276.96089 279.318 284.24928 289.63417 294.02296 301.8143 309.655 314.75389 317.111 320.67137 323.02848 328.12736 330.48448 337.57563 344.69633 347.3296 352.07344 357.17234 362.10359 369.73716 374.481 379.57987 384.67878 387.0359 389.393 393.78184 398.52568 402.086 404.44316 409.3744 414.4634 420.94306 427.6791 430.03623 433.5966 441.3978 448.844 451.86189 457.06929 461.4581 466.55699 473.03663 477.96788 485.76908 489.5464 493.9352 498.67906 501.03617 505.78004 510.8789 513.236 515.59317 517.9503 521.2247 524.933">DesignedanddevelopedmultipleDjangoapplicationswithafocusonscalability,</tspan></text>
<text xml:space="preserve" transform="matrix(1 0 -0 1 0 841.89)" font-size="9.9626" font-family="LMSans10"><tspan y="-611.48" x="199.019 203.45236 206.15555 208.85874 211.56192 215.99527 218.37633 222.8097 227.96036 232.3937 236.14962 242.24674 247.02878 252.17945 260.65763 264.4733 268.0698 272.86183 278.00254 280.3836 282.76469 285.14576 288.47328 292.2292 298.3163 301.7235 306.15687 309.97254 315.1232 317.50428 321.10078 323.48185 328.6325 336.93135 339.3124 347.7806 355.90016 360.88145 365.86274 377.47914 379.8602 385.01087 389.4442 392.84147 397.2748 402.06684 405.8825 413.6334 416.01448 424.49266 429.63337 433.45899 437.8824 444.6171 449.0405 454.19117 459.17247 463.96449 468.94578 473.37913 481.29939 485.73274 490.8834 497.79743 502.58946 507.7401 516.2083">efficiency,andstability,resultingina30%increaseinuserengagementanda</tspan><tspan y="-599.524" x="199.019 204.00029 208.98159 220.59798 225.74864 230.182 234.61536 238.02257 242.45594 247.24794 251.06362 258.8145 261.1956 269.67378 274.82444 279.9751 284.9564">25%decreaseinbugs</tspan></text>
<text fill="#3873b3" xml:space="preserve" transform="matrix(1 0 -0 1 0 841.89)" font-size="4.9813" font-family="FontAwesome5Free"><tspan y="-585.732" x="190.717">&#x25cb;</tspan></text>
<text xml:space="preserve" transform="matrix(.99899956 0 -0 1.0010015 0 841.89)" font-size="9.952632" font-family="LMSans10"><tspan y="-585.146" x="199.2183 205.57804 210.55435 212.93303 215.3117 220.09893 225.52312 230.22077 233.62456 238.41178 242.00469 246.4336 254.91324 261.71089 264.08958 267.68247 276.1621 280.59104 283.9948 288.97117 292.783 296.59486 299.9091 302.9546 308.1001 313.24559 317.67454 321.2674 323.6461 328.6224 333.7679 338.55516 344.26799 347.86088 352.2898 357.07704 364.98939 372.1453 375.7382 384.04866 389.19416 393.62309 396.00178 398.38047 402.96867 407.39759 414.13554 419.28105 421.65974 426.63606 431.78153 435.09577 440.24128 445.38676 450.17399 452.55268 454.93138 458.2456 466.16795 469.9798 474.95613 478.00163 481.31584 487.84474 492.3533 495.7571 503.52018 507.33204 512.30838 514.6871 519.8326">Collaboratedwithcross-functionalteamstodeliverhigh-qualitysoftwaresolu-</tspan></text>
<text xml:space="preserve" transform="matrix(.9949875 0 -0 1.0050378 0 841.89)" font-size="9.912662" font-family="LMSans10"><tspan y="-570.90097" x="200.0216 203.60009 205.96921 210.92554 216.05039 219.84693 225.94322 228.31235 233.43718 237.84832 240.21746 245.34229 250.46714 252.83626 257.9611 266.2679 271.38285 276.15083 280.56196 285.1317 289.54289 294.6677 303.13313 309.74488 316.07905 322.18525 327.3101 331.72123 336.291 340.70216 343.07127 348.0276 353.15245 361.033 365.43424 370.55909 374.13755 380.24375 385.3686 390.13658 393.71507 401.8236 409.70417 414.93806 420.0629 424.47404 426.84315 429.21226 434.3371 439.29344 445.38975 450.1577 455.28254 463.74797 467.32646 471.73759 475.53416 479.11265 481.48176 486.60658 491.56294 497.6691 504.43949 506.8086 510.38706 518.85256">tions,includingbackendAPIdevelopment,datamodeling,andtesting,witha</tspan></text>
<text xml:space="preserve" transform="matrix(1 0 -0 1 0 841.89)" font-size="9.9626" font-family="LMSans10"><tspan y="-561.821" x="199.019 204.00029 208.98159 220.59798 224.41365 229.20566 232.80216 235.18321 238.99889 242.04744 246.83945 251.2728 254.8693 257.25038 262.23167 270.70985 274.1071 278.8991 282.4956 290.25648 293.30503 296.71223 301.6935 312.9313 316.74699 320.34349 325.1355 329.72825 334.1616 339.31227 344.29356 346.67463 351.8253 356.25865 359.66584">95%satisfactionratefromstakeholders</tspan></text>
<text fill="#3873b3" xml:space="preserve" transform="matrix(1 0 -0 1 0 841.89)" font-size="4.9813" font-family="FontAwesome5Free"><tspan y="-549.40798" x="190.717">&#x25cb;</tspan></text>
<text xml:space="preserve" transform="matrix(1.0079683 0 -0 .9920947 0 841.89)" font-size="10.041985" font-family="LMSans10"><tspan y="-553.7859" x="197.4457 200.23737 208.22075 213.14131 216.57569 221.59668 226.22603 230.68468 239.17017 244.00037 249.19207 254.38376 256.78379 259.18385 263.65254 268.48274 272.10789 274.50794 279.52894 288.00437 293.46717 297.93586 301.37025 304.44306 309.19294 312.6273 320.6107 325.4409 330.63258 335.10127 342.8537 347.77427 355.68736 360.70835 365.72935 377.3881 381.01325 386.20497 389.6393 394.6603 399.85203 404.87303 413.34846 418.36946 423.56114 427.18629 429.58634 437.5697 439.96977 444.338 449.1682 452.79338 455.19343 460.21443 468.68986 473.71086 480.07743 485.26914 490.09934 493.7245 498.54463 503.73634 508.56657 512.4126">Improvedapplicationperformanceby40%throughoptimizationofdatabase</tspan></text>
<text xml:space="preserve" transform="matrix(1.0099505 0 -0 .9901476 0 841.89)" font-size="10.061732" font-family="LMSans10"><tspan y="-542.8009" x="197.05815 202.26007 207.46199 211.93946 215.38057 217.78533 222.26279 226.11643 232.43518 240.43427 244.91173 252.91082 257.6599 261.101 269.22084 274.42274 278.27638 283.11607 288.14695 292.62443 298.94319 303.78288 308.98475 317.65794 321.5116 325.98908 329.43019 334.06864 338.5461 345.4585 349.93598 354.96684 360.16874 362.86528 365.56184 370.59269 375.79463 379.23573 384.0754 387.7077 390.11247 395.1433 400.34526 406.664 411.5037 415.98118 421.18309 423.58784 428.0653 432.70378 435.1085 440.31044 448.8126 453.29008 457.92854 462.406 466.88349 472.0854 475.71766 478.1224 483.1533 488.3552 493.1949 499.07093 504.27287 508.12648 512.60397">queries,memoryusage,andserverconfiguration,achievingexceptionaluser</tspan></text>
<text xml:space="preserve" transform="matrix(1 0 -0 1 0 841.89)" font-size="9.9626" font-family="LMSans10"><tspan y="-525.498" x="199.019 203.45236 208.04512 213.47473 217.90808 221.31529 223.69635 228.1297 233.28037 237.70375 245.46463 250.25664 255.4073 263.8755 271.79576 276.2291 280.66246 284.25895 286.64 291.79069 300.0895 305.24018 310.39085 314.2065 316.5876 321.73826 326.1716 329.98728 337.12049 340.52769 344.96104 350.1117 355.26237 357.64344 361.05064 365.48399 373.40425 377.8376 382.98826 386.58476">experienceandmeetingbusinessrequirements</tspan></text>
<path transform="matrix(1,0,0,-1,74.409,338.256)" d="M0 0H107.717V4.206H0Z" fill="#3873b3"/>
<text fill="#3873b3" xml:space="preserve" transform="matrix(1 0 -0 1 0 841.89)" font-size="14.3462" font-family="LMSans12"><tspan y="-501.532" x="190.717 198.52133 205.33579 208.6354 211.93503 215.23465">Skills</tspan></text>
<text xml:space="preserve" transform="matrix(1.0014989 0 -0 .9985034 0 841.89)" font-size="9.977532" font-family="LMSans10"><tspan y="-484.87867" x="190.43155 195.58994 200.74832 204.3502 210.4365 217.64029 222.90842 227.34842 231.94806 236.38806 239.80039 245.88668 251.84326 254.22788 259.02708 262.84846 266.45036 268.835 273.275 277.09638 281.53639 286.0662 289.4785 293.9185 299.0669 305.16319 312.09757 316.8968 319.94993 324.82893 329.6281 335.71443 342.64884 347.8072 353.235 357.675 361.08729 366.24568 370.68565 374.28758 378.72755 382.54896 388.6452 394.19273 400.728 405.5272 410.51597 415.50474 419.94474 423.35704 429.44334 435.5396 440.52839 444.34977 447.95167 455.88383 460.683 465.8414 471.93766 476.64707 481.44627 486.0459 490.83515 496.93144 503.30705 511.06959 518.8321">dbt,Docker,Elasticsearch,Kafka,Kubernetes,Swagger,Postman,Java,C++,</tspan></text>
<text xml:space="preserve" transform="matrix(.9924717 0 -0 1.0075854 0 841.89)" font-size="9.887598" font-family="LMSans10"><tspan y="-468.64317" x="192.16367 198.48184 206.1744 213.86696 219.97748 225.88039 230.99228 234.5617 238.9518 242.33335 247.1684 250.54994 252.91309 256.70005 264.4618 269.12876 273.87477 278.43296 283.18888 289.7839 294.18388 298.93983 304.0517 307.83866 313.9492 318.61616 323.37208 327.93025 332.68617 338.7868 343.45378 348.2097 352.76786 357.5238 361.31077 365.71073 369.0923 371.4554 376.5673 380.13673 386.24726 392.56544 397.1236 400.69303 405.8049 410.74873 415.8606 421.96125 427.45875 432.57063 437.23756 443.99079 446.64067 449.29054 454.04649 458.60466 463.0046 469.10527 473.77223 478.52815 483.0863 487.84226 493.9528 500.27098 504.82914 508.39854 513.51046 518.4542 523.56619">C++,EnterpriseJavaBeans,Java,Javascript,Python,Snowflake,Java,Python,</tspan></text>
<text xml:space="preserve" transform="matrix(1 0 -0 1 0 841.89)" font-size="9.9626" font-family="LMSans10"><tspan y="-460.243" x="190.717 197.0831 204.834">C++</tspan></text>
<path transform="matrix(1,0,0,-1,74.409,405.16)" d="M0 0H107.717V4.206H0Z" fill="#3873b3"/>
<text fill="#3873b3" xml:space="preserve" transform="matrix(1 0 -0 1 0 841.89)" font-size="14.3462" font-family="LMSans12"><tspan y="-434.628" x="190.717 199.69773 205.93833 210.7156 215.79416 219.09378 222.8453 226.59685 232.83745 239.56581 244.64437 247.94399 254.97362 262.1754">Certifications</tspan></text>
<text xml:space="preserve" transform="matrix(1 0 -0 1 0 841.89)" font-size="9.9626" font-family="LMSans10"><tspan y="-417.249" x="142.054 146.75635 151.90702 154.28807 162.19838 167.17967 172.16097 177.14226">July2024</tspan></text>
<text xml:space="preserve" transform="matrix(1 0 -0 1 0 841.89)" font-size="9.9626" font-family="LMSans10"><tspan y="-417.249" x="190.72127 197.91426 203.06493 209.97898 214.41233 218.84568 222.25289 225.84938 228.23044 230.90042 233.57039 238.00376 242.79576 246.39226 254.14318 260.77827 267.97126 274.6163 284.72837 289.1617 293.59507 297.00227 300.59877 302.97984 305.6498 308.3198 312.7432 317.53523 321.1317 323.5128 328.49409">Dbtcertificate-DBTcertification</tspan></text>
<path transform="matrix(1,0,0,-1,74.409,448.15403)" d="M0 0H107.717V4.206H0Z" fill="#3873b3"/>
<text fill="#3873b3" xml:space="preserve" transform="matrix(1 0 -0 1 0 841.89)" font-size="14.3462" font-family="LMSans12"><tspan y="-391.634" x="190.717 199.65468 204.43196 211.4616 215.16292 221.40352 227.64412 232.72267">Projects</tspan></text>
<text xml:space="preserve" transform="matrix(1 0 -0 1 0 841.89)" font-size="9.9626" font-family="LMSans10"><tspan y="-374.254" x="190.717 197.90999 200.29105 204.10672 207.70322 211.11043 213.49149 218.64215 223.79282 227.38932 231.82266 240.29088 246.37804 251.35933 253.74039 256.12147 258.50254 263.6532 271.962 278.60707 283.75773 288.9084 291.28947 293.67054 298.10389 302.8959 306.4924 308.87348 313.85478">DistributedPollingApplication</tspan></text>
<text fill="#3873b3" xml:space="preserve" transform="matrix(1 0 -0 1 0 841.89)" font-size="4.9813" font-family="FontAwesome5Free"><tspan y="-358.812" x="190.717">&#x25cb;</tspan></text>
<text xml:space="preserve" transform="matrix(1.0099505 0 -0 .9901476 0 841.89)" font-size="10.061732" font-family="LMSans10"><tspan y="-362.38233" x="197.05815 204.32273 208.80019 213.43865 217.9161 220.32086 225.35175 230.82532 235.30278 244.17723 252.68946 257.16694 259.5717 264.60258 269.8045 275.00639 278.35697 283.55888 288.39857 292.2522 296.72969 301.93159 308.5019 312.35554 316.833 321.6727 324.07746 328.91716 334.11906 336.5238 344.67384 351.9384 354.34315 358.19679 361.82908 365.27018 367.67494 372.87684 378.07875 381.711 386.18849 395.06297 401.22074 406.25163 408.65635 411.0611 413.46586 418.66777 427.37117 434.08235 439.28428 444.48619 446.89094 449.2957 453.77317 458.61286 462.24513 464.64988 469.68077 478.5552 481.6341 486.11158 490.95127 494.58357 499.78547 503.22657 505.63133 510.83326">Developedacloud-based,scalableDistributedPollingApplicationfeaturing</tspan></text>
<text xml:space="preserve" transform="matrix(1.0014989 0 -0 .9985034 0 841.89)" font-size="9.977532" font-family="LMSans10"><tspan y="-347.37687" x="198.72112 202.13344 206.57344 211.37262 213.75725 217.07978 220.68166 223.06629 230.99842 238.74098 244.17874 249.16751 251.55213 253.93675 256.32139 261.47978 266.4685 272.54487 277.70326 282.3029 287.46125 292.26048 300.1926 302.57725 310.31983 315.47819 320.27738 323.8793 331.98109 336.78028 341.93867 346.73786 349.1225 353.72215 357.32405 359.70869 364.14869 367.97007 374.0464 378.8456 384.00398 392.46495 396.28633 400.72633 405.16633 410.32469 413.737 421.47959 426.63795 430.45936 434.89933 441.61424 446.41343 451.57179 455.1737 460.33207 464.77207 469.93046 473.53236 475.917 480.357 485.1562 488.7581 491.14274 496.1315 504.59245 506.97709 515.438">real-timepolling,dynamicdataanalytics,andsecureuserauthenticationina</tspan></text>
<text xml:space="preserve" transform="matrix(1 0 -0 1 0 841.89)" font-size="9.9626" font-family="LMSans10"><tspan y="-334.902" x="199.019 206.93927 209.32033 213.7537 217.1609 222.1422 225.95787 230.39124 233.79845 238.3912 240.77227 245.20563 249.63898 256.7722 261.28526 264.69245 269.1258 274.27647 276.65754 280.25404 284.68739 289.12074 292.71723 297.8679 301.2751 305.70845">microservicesarchitecture.</tspan></text>
<text fill="#3873b3" xml:space="preserve" transform="matrix(1 0 -0 1 0 841.89)" font-size="4.9813" font-family="FontAwesome5Free"><tspan y="-323.04603" x="190.717">&#x25cb;</tspan></text>
<text xml:space="preserve" transform="matrix(.98994949 0 -0 1.0101526 0 841.89)" font-size="9.862471" font-family="LMSans10"><tspan y="-319.7992" x="201.03955 206.92745 212.02635 215.80368 220.90258 224.27555 228.66436 236.68254 240.05551 244.98674 250.08563 255.18454 258.96186 265.43165 269.20896 273.59779 278.3416 280.69874 285.4426 290.54148 292.8986 295.2557 297.61286 300.89704 308.36296 313.10679 318.2057 326.214 330.60279 333.2788 335.95484 338.63084 343.01966 345.37678 349.76557 354.86448 359.25328 366.71919 371.65043 379.6686 384.0574 386.41453 391.34577 396.44468 401.5337 407.28349 414.01957 416.37669 419.937 427.9552 433.43876 438.9223 444.26777 449.199 455.91535 461.26084 469.6538 474.0426 479.1415 483.5303 486.90327 491.44987 496.54875 500.1091 502.46623 507.39747 515.41567 518.43356 523.07876">Ensuredrobustscalabilityandefficiencyoncloud,withSSL/TLSencryptionfor</tspan><tspan y="-307.9644" x="201.03955 204.81688 209.20569 213.5945 218.69339 222.06636 224.4235 227.70769 231.40612 237.294 245.13466 249.87851 254.70127 257.05839 262.1573 270.16563 272.52278 279.17008 281.5272 286.62608 291.0149 295.75874 301.20283 304.22074 308.86598 315.32588 317.68299 322.14085 325.51377 330.445 334.83384 338.118 341.89533 346.28416 351.02799 353.3851 357.77394 363.6618 368.75083 371.10795 376.03919 381.1381 384.42228 387.98265 391.3556 396.09944 398.77546 401.45149 404.12748 411.60325 415.38056 420.47944 423.8524 428.399 432.7878 440.4214 445.16523 450.2641 458.4401 463.82499 468.75624 471.11338 473.4705 475.8276 480.92649 488.93486 492.71217 497.10096 501.48979 506.58866 511.05635 514.4293 516.78646 521.71768 525.495">security,makingitidealforlarge-scale,high-trafficsurveyandpollingscenarios.</tspan></text>
<text xml:space="preserve" transform="matrix(1 0 -0 1 0 841.89)" font-size="9.9626" font-family="LMSans10"><tspan y="-297.299" x="190.717 197.15283 201.58618 205.40186 210.55252 218.4728 222.90616 226.22371 232.31087 236.82393 240.23114 244.04682 248.48017">Resume-Parser</tspan></text>
<text fill="#3873b3" xml:space="preserve" transform="matrix(1 0 -0 1 0 841.89)" font-size="4.9813" font-family="FontAwesome5Free"><tspan y="-281.85603" x="190.717">&#x25cb;</tspan></text>
<text xml:space="preserve" transform="matrix(1.0099505 0 -0 .9901476 0 841.89)" font-size="10.061732" font-family="LMSans10"><tspan y="-284.66056" x="197.05815 199.85532 207.8544 213.05632 215.46106 219.93854 227.9376 232.41507 237.61699 241.24927 245.72675 254.60118 259.80314 264.64283 268.2751 270.67985 275.3183 283.47837 285.88313 291.08506 294.71733 299.1948 304.22569 307.66679 312.4964 316.1287 318.53346 323.56434 332.44886 335.52775 340.28694 347.40058 354.00105 358.47853 367.35298 372.19267 377.39457 386.27906 389.72016 394.19764 397.82994 403.03184 406.47294 411.67485 414.0796 419.28153 427.98493 434.58543 439.0629 441.46766 443.8724 447.22297 451.07664 454.70893 458.15003 463.3519 467.82939 471.46168 476.6636 480.1047 484.58219 489.7841 496.3544 500.83189 505.67158 509.5252 514.1637">Implementednativeintegrationforwebandreturningwell-structured,easy-</tspan></text>
<text xml:space="preserve" transform="matrix(.99849888 0 -0 1.0015035 0 841.89)" font-size="9.947644" font-family="LMSans10"><tspan y="-269.49583" x="199.31819 202.90929 207.88312 211.19567 214.59777 219.02448 223.80928 232.28467 237.4276 242.67996 247.10666 252.24959 260.158 264.58467 269.7276 273.31874 278.10356 281.69468 284.07218 289.04603 297.5214 300.56538 305.26069 311.9952 320.12248 326.47904 331.06489 334.656 339.79896 344.7728 349.91575 353.2283 358.37123 363.14613 366.966 371.38276 379.86814 384.73255 388.1346 393.10847 395.7645 400.1912 404.61787 408.20899 414.3069 419.44984 423.04093 425.41844 427.79594 430.17344 434.50068 436.87818 442.02113 450.32743 454.7541 459.33998 464.76145 469.1881 472.5902 476.1813 478.5588 482.36878 490.1279 492.5054 500.99079 507.62586 512.5997 514.9772 517.3547">to-readdocumentationforaPython-basedproject,utilizingexpertiseinAgile</tspan></text>
<text xml:space="preserve" transform="matrix(1 0 -0 1 0 841.89)" font-size="9.9626" font-family="LMSans10"><tspan y="-257.946" x="199.019 206.93927 211.37262 214.96912 220.11978 225.38002 230.53069 235.51198 237.89304 242.87433 247.85562 250.23668 254.67005 258.48573">methodologies.</tspan></text>
<text fill="#3873b3" xml:space="preserve" transform="matrix(1 0 -0 1 0 841.89)" font-size="4.9813" font-family="FontAwesome5Free"><tspan y="-244.15302" x="190.717">&#x25cb;</tspan></text>
<text xml:space="preserve" transform="matrix(.98994949 0 -0 1.0101526 0 841.89)" font-size="9.862471" font-family="LMSans10"><tspan y="-241.69913" x="201.03955 208.16025 212.54906 216.32639 218.68352 223.61475 228.71364 233.10245 240.79518 248.123 253.2219 257.6107 266.94059 270.7179 275.26454 279.04185 282.60218 286.99098 297.42549 300.9858 308.5109 316.35157 321.0954 326.1943 330.93815 335.8694 342.84214 345.19929 350.29817 353.8585 358.2473 361.62028 366.3641 370.7529 374.31327 376.67039 381.60163 386.7005 390.4778 395.96134 400.35017 405.44905 410.19288 415.29179 417.6489 420.006 425.1049 432.62998 436.4073 444.24797 449.45536 454.3866 457.94694 463.04585 467.43464 473.4014 477.79023 482.72148 485.07859 487.4357 492.17955 497.5546 502.2097 505.58265 510.32649 513.88687 516.24398 521.1752">Designedanewsystemtomanageinteractions,enablingsmoothercollaboration</tspan></text>
<text xml:space="preserve" transform="matrix(1.0099505 0 -0 .9901476 0 841.89)" font-size="10.061732" font-family="LMSans10"><tspan y="-234.50846" x="197.05815 201.89785 207.09976 216.01447 221.21637 226.05606 229.68836 238.25089 242.10453 246.74298 251.9449 256.42237 261.6243 265.0654 270.09626 275.29817 277.7029 282.07978 286.91947 290.55177 292.9565 297.98738 306.90205 312.10398 315.95765 318.3624 323.5643 332.318 338.74745 343.3859 347.01817 352.22007 357.25096 366.16563 371.09587 374.53697 379.56785 384.59873 388.03984 392.87953 400.87858 408.87767 411.2824 416.48435 425.228 427.63276 432.47245 437.67439 442.70524 447.90715 452.74684 457.7777 462.2552 468.8758 472.3169 476.79438 480.64805 485.84999 488.25474 491.887 494.29176 499.49369 508.2474 510.6522">anddatasynchronizationusingPythonprogramminglanguage,resultingin</tspan></text>
<text xml:space="preserve" transform="matrix(1 0 -0 1 0 841.89)" font-size="9.9626" font-family="LMSans10"><tspan y="-220.243" x="199.019 201.40006 209.32033 214.19205 217.59926 222.58055 227.17331 231.60666 240.07488 244.50824 247.21143 249.91461 252.6178 257.05116 259.43223 263.86558 269.01625 273.4496 281.3599 286.15193 291.30259 299.78077 304.93144 309.72346 313.31996 321.4295 323.81059 328.96125 332.55775 336.9911 341.97239 345.37959 347.76066 351.0782 354.84407">improvedefficiencyanddataintegrity.</tspan></text>
<text fill="#3873b3" xml:space="preserve" transform="matrix(1 0 -0 1 0 841.89)" font-size="4.9813" font-family="FontAwesome5Free"><tspan y="-206.45" x="190.717">&#x25cb;</tspan></text>
<text xml:space="preserve" transform="matrix(.98994949 0 -0 1.0101526 0 841.89)" font-size="9.862471" font-family="LMSans10"><tspan y="-204.37506" x="200.69712 206.57514 209.9481 214.69196 219.79085 223.56818 225.92531 229.48566 231.84278 236.774 241.87291 246.26172 254.201 261.7951 264.15223 268.54103 273.47227 278.21614 282.59507 289.9919 296.294 300.84065 304.40098 309.49986 314.43113 322.3704 327.19316 330.56608 335.4973 338.1306 342.5194 346.9082 353.30897 358.40788 362.18519 364.5423 369.64118 377.42268 380.983 384.35597 386.7131 391.1019 399.0412 403.78504 408.8839 416.8232 420.38356 424.77238 428.54969 432.11003 436.49885 444.44798 449.1918 454.12306 456.48017 458.8373 466.06654 473.9072 478.296 481.85636 486.95524 492.16264 497.2615 502.19276 504.54988 509.48115 514.41238 516.7695 521.15829 524.9356">TransitionedalegacyPythonprojectusingtriedandtestedagilemethodologies,</tspan></text>
<text xml:space="preserve" transform="matrix(1.0009996 0 -0 .9990015 0 841.89)" font-size="9.972557" font-family="LMSans10"><tspan y="-194.68938" x="198.82025 203.25804 208.41387 212.23334 217.38916 220.79976 223.1832 228.339 236.65612 241.09392 243.7998 246.50569 249.21158 253.64937 256.03285 260.4706 265.62644 272.55738 276.99519 281.59254 286.03034 290.45817 295.61399 299.21409 301.59754 306.58384 315.0705 319.8673 325.02314 333.5098 337.32929 340.92939 345.7262 350.32356 354.76136 359.91719 364.90345 367.2869 372.44276 376.88053 383.62199 387.44148 392.23829 395.83839 398.22184 402.04133 405.09294 409.88975 414.32756 417.92765 420.3111 425.29737 430.4532 436.5564 443.36766 448.52348 450.90693 453.29039 461.05903 466.21485 470.65266 478.5808 483.5671 488.72294 492.54243 496.14253 499.55314 504.34996 507.95005 510.3335 515.48928">ensuringefficientexecutionandstakeholdersatisfaction,whiledemonstrating</tspan></text>
<text xml:space="preserve" transform="matrix(1 0 -0 1 0 841.89)" font-size="9.9626" font-family="LMSans10"><tspan y="-182.54" x="199.019 203.45236 208.04512 213.47473 217.90808 221.31529 224.91179 227.29285 231.10852 238.85942 241.24048 249.7087 254.5007 259.65138 264.4434 269.59407 273.19056 275.57164 280.7223 289.02113 292.6176 300.92643 303.3075 307.74085 312.72215 317.51417 321.9475 329.85783 334.29118 339.55143 344.7021 349.13545">expertiseinadaptingtolegacycode.</tspan></text>
</svg>
